solid OpenSCAD_Model
  facet normal 1 -0 0
    outer loop
      vertex 75 -58.5 5
      vertex 75 66.5 -5
      vertex 75 66.5 5
    endloop
  endfacet
  facet normal 1 0 0
    outer loop
      vertex 75 66.5 -5
      vertex 75 -58.5 5
      vertex 75 -58.5 -5
    endloop
  endfacet
  facet normal -0 0 1
    outer loop
      vertex -65 66.5 5
      vertex -61.5 32.5 5
      vertex -61.5 66.5 5
    endloop
  endfacet
  facet normal 0 0 1
    outer loop
      vertex -65 -58.5 5
      vertex -61.5 32.5 5
      vertex -65 66.5 5
    endloop
  endfacet
  facet normal 0 0 1
    outer loop
      vertex -61.5 32.5 5
      vertex -62.6765 -51.0274 5
      vertex -62 -50.5359 5
    endloop
  endfacet
  facet normal 0 0 1
    outer loop
      vertex -61.5 32.5 5
      vertex -63.2361 -51.6489 5
      vertex -62.6765 -51.0274 5
    endloop
  endfacet
  facet normal 0 0 1
    outer loop
      vertex -61.5 32.5 5
      vertex -63.6542 -52.3731 5
      vertex -63.2361 -51.6489 5
    endloop
  endfacet
  facet normal 0 0 1
    outer loop
      vertex -61.5 32.5 5
      vertex -63.9126 -53.1684 5
      vertex -63.6542 -52.3731 5
    endloop
  endfacet
  facet normal 0 0 1
    outer loop
      vertex -61.5 32.5 5
      vertex -65 -58.5 5
      vertex -63.9126 -53.1684 5
    endloop
  endfacet
  facet normal 0 0 1
    outer loop
      vertex 75 66.5 5
      vertex 40 37.5 5
      vertex 75 -58.5 5
    endloop
  endfacet
  facet normal 0 0 1
    outer loop
      vertex 38.9126 53.1684 5
      vertex 75 66.5 5
      vertex 39 54 5
    endloop
  endfacet
  facet normal 0 0 1
    outer loop
      vertex 75 66.5 5
      vertex 38.9126 54.8316 5
      vertex 39 54 5
    endloop
  endfacet
  facet normal 0 0 1
    outer loop
      vertex 75 66.5 5
      vertex 38.6542 55.6269 5
      vertex 38.9126 54.8316 5
    endloop
  endfacet
  facet normal 0 0 1
    outer loop
      vertex 75 66.5 5
      vertex 38.2361 56.3511 5
      vertex 38.6542 55.6269 5
    endloop
  endfacet
  facet normal 0 0 1
    outer loop
      vertex 75 66.5 5
      vertex 37.6765 56.9726 5
      vertex 38.2361 56.3511 5
    endloop
  endfacet
  facet normal 0 0 1
    outer loop
      vertex 75 66.5 5
      vertex 37 57.4641 5
      vertex 37.6765 56.9726 5
    endloop
  endfacet
  facet normal 0 0 1
    outer loop
      vertex 75 66.5 5
      vertex 36.2361 57.8042 5
      vertex 37 57.4641 5
    endloop
  endfacet
  facet normal 0 0 1
    outer loop
      vertex 75 66.5 5
      vertex 35.4181 57.9781 5
      vertex 36.2361 57.8042 5
    endloop
  endfacet
  facet normal 0 0 1
    outer loop
      vertex 75 66.5 5
      vertex 34.5819 57.9781 5
      vertex 35.4181 57.9781 5
    endloop
  endfacet
  facet normal 0 0 1
    outer loop
      vertex 31.0874 54.8316 5
      vertex -18.5 66.5 5
      vertex 31 54 5
    endloop
  endfacet
  facet normal 0 0 1
    outer loop
      vertex 31.3458 55.6269 5
      vertex -18.5 66.5 5
      vertex 31.0874 54.8316 5
    endloop
  endfacet
  facet normal 0 0 1
    outer loop
      vertex 31.7639 56.3511 5
      vertex -18.5 66.5 5
      vertex 31.3458 55.6269 5
    endloop
  endfacet
  facet normal 0 0 1
    outer loop
      vertex 32.3235 56.9726 5
      vertex -18.5 66.5 5
      vertex 31.7639 56.3511 5
    endloop
  endfacet
  facet normal 0 0 1
    outer loop
      vertex 33 57.4641 5
      vertex -18.5 66.5 5
      vertex 32.3235 56.9726 5
    endloop
  endfacet
  facet normal 0 0 1
    outer loop
      vertex 33.7639 57.8042 5
      vertex -18.5 66.5 5
      vertex 33 57.4641 5
    endloop
  endfacet
  facet normal 0 0 1
    outer loop
      vertex 34.5819 57.9781 5
      vertex -18.5 66.5 5
      vertex 33.7639 57.8042 5
    endloop
  endfacet
  facet normal -0 0 1
    outer loop
      vertex -18.5 66.5 5
      vertex 34.5819 57.9781 5
      vertex 75 66.5 5
    endloop
  endfacet
  facet normal -0 0 1
    outer loop
      vertex 40 -32.5 5
      vertex 75 -58.5 5
      vertex 40 37.5 5
    endloop
  endfacet
  facet normal -0 0 1
    outer loop
      vertex -20 -32.5 5
      vertex 75 -58.5 5
      vertex 40 -32.5 5
    endloop
  endfacet
  facet normal 0 0 1
    outer loop
      vertex -56.0874 -54.8316 5
      vertex -20 -32.5 5
      vertex -56 -54 5
    endloop
  endfacet
  facet normal 0 0 1
    outer loop
      vertex -56.3458 -55.6269 5
      vertex -20 -32.5 5
      vertex -56.0874 -54.8316 5
    endloop
  endfacet
  facet normal 0 0 1
    outer loop
      vertex -56.7639 -56.3511 5
      vertex -20 -32.5 5
      vertex -56.3458 -55.6269 5
    endloop
  endfacet
  facet normal 0 0 1
    outer loop
      vertex -20 -32.5 5
      vertex -56.7639 -56.3511 5
      vertex 75 -58.5 5
    endloop
  endfacet
  facet normal -0 0 1
    outer loop
      vertex -57.3235 -56.9726 5
      vertex 75 -58.5 5
      vertex -56.7639 -56.3511 5
    endloop
  endfacet
  facet normal -0 0 1
    outer loop
      vertex -58 -57.4641 5
      vertex 75 -58.5 5
      vertex -57.3235 -56.9726 5
    endloop
  endfacet
  facet normal -0 0 1
    outer loop
      vertex -58.7639 -57.8042 5
      vertex 75 -58.5 5
      vertex -58 -57.4641 5
    endloop
  endfacet
  facet normal -0 0 1
    outer loop
      vertex -59.5819 -57.9781 5
      vertex 75 -58.5 5
      vertex -58.7639 -57.8042 5
    endloop
  endfacet
  facet normal 0 0 1
    outer loop
      vertex -65 -58.5 5
      vertex -59.5819 -57.9781 5
      vertex -60.4181 -57.9781 5
    endloop
  endfacet
  facet normal 0 0 1
    outer loop
      vertex -59.5819 -57.9781 5
      vertex -65 -58.5 5
      vertex 75 -58.5 5
    endloop
  endfacet
  facet normal 0 0 1
    outer loop
      vertex -61.2361 -57.8042 5
      vertex -65 -58.5 5
      vertex -60.4181 -57.9781 5
    endloop
  endfacet
  facet normal 0 0 1
    outer loop
      vertex -62 -57.4641 5
      vertex -65 -58.5 5
      vertex -61.2361 -57.8042 5
    endloop
  endfacet
  facet normal 0 0 1
    outer loop
      vertex -62.6765 -56.9726 5
      vertex -65 -58.5 5
      vertex -62 -57.4641 5
    endloop
  endfacet
  facet normal 0 0 1
    outer loop
      vertex -63.2361 -56.3511 5
      vertex -65 -58.5 5
      vertex -62.6765 -56.9726 5
    endloop
  endfacet
  facet normal 0 0 1
    outer loop
      vertex -63.6542 -55.6269 5
      vertex -65 -58.5 5
      vertex -63.2361 -56.3511 5
    endloop
  endfacet
  facet normal 0 0 1
    outer loop
      vertex -63.9126 -54.8316 5
      vertex -65 -58.5 5
      vertex -63.6542 -55.6269 5
    endloop
  endfacet
  facet normal 0 0 1
    outer loop
      vertex -64 -54 5
      vertex -65 -58.5 5
      vertex -63.9126 -54.8316 5
    endloop
  endfacet
  facet normal 0 0 1
    outer loop
      vertex -63.9126 -53.1684 5
      vertex -65 -58.5 5
      vertex -64 -54 5
    endloop
  endfacet
  facet normal 0 0 1
    outer loop
      vertex 75 66.5 5
      vertex 38.9126 53.1684 5
      vertex 40 37.5 5
    endloop
  endfacet
  facet normal -0 0 1
    outer loop
      vertex 38.6542 52.3731 5
      vertex 40 37.5 5
      vertex 38.9126 53.1684 5
    endloop
  endfacet
  facet normal -0 0 1
    outer loop
      vertex 38.2361 51.6489 5
      vertex 40 37.5 5
      vertex 38.6542 52.3731 5
    endloop
  endfacet
  facet normal -0 0 1
    outer loop
      vertex 37.6765 51.0274 5
      vertex 40 37.5 5
      vertex 38.2361 51.6489 5
    endloop
  endfacet
  facet normal -0 0 1
    outer loop
      vertex 37 50.5359 5
      vertex 40 37.5 5
      vertex 37.6765 51.0274 5
    endloop
  endfacet
  facet normal -0 0 1
    outer loop
      vertex 36.2361 50.1958 5
      vertex 40 37.5 5
      vertex 37 50.5359 5
    endloop
  endfacet
  facet normal 0 0 1
    outer loop
      vertex 35 37.5 5
      vertex 36.2361 50.1958 5
      vertex 35.4181 50.0219 5
    endloop
  endfacet
  facet normal 0 0 1
    outer loop
      vertex 36.2361 50.1958 5
      vertex 35 37.5 5
      vertex 40 37.5 5
    endloop
  endfacet
  facet normal -0 0 1
    outer loop
      vertex 34.5819 50.0219 5
      vertex 35 37.5 5
      vertex 35.4181 50.0219 5
    endloop
  endfacet
  facet normal 0 0 1
    outer loop
      vertex 33.7639 50.1958 5
      vertex 35 37.5 5
      vertex 34.5819 50.0219 5
    endloop
  endfacet
  facet normal 0 0 1
    outer loop
      vertex 33 50.5359 5
      vertex 35 37.5 5
      vertex 33.7639 50.1958 5
    endloop
  endfacet
  facet normal 0 0 1
    outer loop
      vertex 32.3235 51.0274 5
      vertex 35 37.5 5
      vertex 33 50.5359 5
    endloop
  endfacet
  facet normal 0 0 1
    outer loop
      vertex 31.7639 51.6489 5
      vertex 35 37.5 5
      vertex 32.3235 51.0274 5
    endloop
  endfacet
  facet normal 0 0 1
    outer loop
      vertex 31.3458 52.3731 5
      vertex 35 37.5 5
      vertex 31.7639 51.6489 5
    endloop
  endfacet
  facet normal 0 0 1
    outer loop
      vertex 35 37.5 5
      vertex 31.3458 52.3731 5
      vertex -18.5 32.5 5
    endloop
  endfacet
  facet normal 0 0 1
    outer loop
      vertex -18.5 32.5 5
      vertex 31.3458 52.3731 5
      vertex 31.0874 53.1684 5
    endloop
  endfacet
  facet normal 0 0 1
    outer loop
      vertex -18.5 66.5 5
      vertex 31.0874 53.1684 5
      vertex 31 54 5
    endloop
  endfacet
  facet normal 0 0 1
    outer loop
      vertex 31.0874 53.1684 5
      vertex -18.5 66.5 5
      vertex -18.5 32.5 5
    endloop
  endfacet
  facet normal 0 0 1
    outer loop
      vertex 35 37.5 5
      vertex -18.5 32.5 5
      vertex 35 -27.5 5
    endloop
  endfacet
  facet normal 0 0 1
    outer loop
      vertex -18.5 32.5 5
      vertex -20 -27.5 5
      vertex 35 -27.5 5
    endloop
  endfacet
  facet normal 0 0 1
    outer loop
      vertex -58 -50.5359 5
      vertex -20 -32.5 5
      vertex -20 -27.5 5
    endloop
  endfacet
  facet normal -0 0 1
    outer loop
      vertex -61.5 32.5 5
      vertex -20 -27.5 5
      vertex -18.5 32.5 5
    endloop
  endfacet
  facet normal 0 0 1
    outer loop
      vertex -20 -32.5 5
      vertex -56.0874 -53.1684 5
      vertex -56 -54 5
    endloop
  endfacet
  facet normal 0 0 1
    outer loop
      vertex -20 -32.5 5
      vertex -56.3458 -52.3731 5
      vertex -56.0874 -53.1684 5
    endloop
  endfacet
  facet normal 0 0 1
    outer loop
      vertex -20 -32.5 5
      vertex -56.7639 -51.6489 5
      vertex -56.3458 -52.3731 5
    endloop
  endfacet
  facet normal 0 0 1
    outer loop
      vertex -20 -32.5 5
      vertex -57.3235 -51.0274 5
      vertex -56.7639 -51.6489 5
    endloop
  endfacet
  facet normal 0 0 1
    outer loop
      vertex -20 -32.5 5
      vertex -58 -50.5359 5
      vertex -57.3235 -51.0274 5
    endloop
  endfacet
  facet normal 0 0 1
    outer loop
      vertex -20 -27.5 5
      vertex -58.7639 -50.1958 5
      vertex -58 -50.5359 5
    endloop
  endfacet
  facet normal 0 -0 1
    outer loop
      vertex -59.5819 -50.0219 5
      vertex -20 -27.5 5
      vertex -61.5 32.5 5
    endloop
  endfacet
  facet normal 0 0 1
    outer loop
      vertex -20 -27.5 5
      vertex -59.5819 -50.0219 5
      vertex -58.7639 -50.1958 5
    endloop
  endfacet
  facet normal 0 0 1
    outer loop
      vertex -59.5819 -50.0219 5
      vertex -61.5 32.5 5
      vertex -60.4181 -50.0219 5
    endloop
  endfacet
  facet normal 0 0 1
    outer loop
      vertex -60.4181 -50.0219 5
      vertex -61.5 32.5 5
      vertex -61.2361 -50.1958 5
    endloop
  endfacet
  facet normal 0 0 1
    outer loop
      vertex -61.2361 -50.1958 5
      vertex -61.5 32.5 5
      vertex -62 -50.5359 5
    endloop
  endfacet
  facet normal 0 0 -1
    outer loop
      vertex -65 -58.5 -5
      vertex 75 66.5 -5
      vertex 75 -58.5 -5
    endloop
  endfacet
  facet normal -0 0 -1
    outer loop
      vertex 75 66.5 -5
      vertex -65 -58.5 -5
      vertex -65 66.5 -5
    endloop
  endfacet
  facet normal -1 0 0
    outer loop
      vertex -65 -58.5 -5
      vertex -65 66.5 5
      vertex -65 66.5 -5
    endloop
  endfacet
  facet normal -1 -0 0
    outer loop
      vertex -65 66.5 5
      vertex -65 -58.5 -5
      vertex -65 -58.5 5
    endloop
  endfacet
  facet normal 0 1 0
    outer loop
      vertex 75 66.5 5
      vertex -18.5 66.5 -3
      vertex -18.5 66.5 5
    endloop
  endfacet
  facet normal 0 1 0
    outer loop
      vertex -65 66.5 -5
      vertex -18.5 66.5 -3
      vertex 75 66.5 -5
    endloop
  endfacet
  facet normal 0 1 -0
    outer loop
      vertex 75 66.5 -5
      vertex -18.5 66.5 -3
      vertex 75 66.5 5
    endloop
  endfacet
  facet normal 0 1 -0
    outer loop
      vertex -61.5 66.5 -3
      vertex -65 66.5 5
      vertex -61.5 66.5 5
    endloop
  endfacet
  facet normal 0 1 0
    outer loop
      vertex -61.5 66.5 -3
      vertex -65 66.5 -5
      vertex -65 66.5 5
    endloop
  endfacet
  facet normal 0 1 0
    outer loop
      vertex -18.5 66.5 -3
      vertex -65 66.5 -5
      vertex -61.5 66.5 -3
    endloop
  endfacet
  facet normal 0 -1 0
    outer loop
      vertex -65 -58.5 -5
      vertex 75 -58.5 5
      vertex -65 -58.5 5
    endloop
  endfacet
  facet normal 0 -1 -0
    outer loop
      vertex 75 -58.5 5
      vertex -65 -58.5 -5
      vertex 75 -58.5 -5
    endloop
  endfacet
  facet normal -1 0 0
    outer loop
      vertex -18.5 32.5 -3
      vertex -18.5 66.5 5
      vertex -18.5 66.5 -3
    endloop
  endfacet
  facet normal -1 -0 0
    outer loop
      vertex -18.5 66.5 5
      vertex -18.5 32.5 -3
      vertex -18.5 32.5 5
    endloop
  endfacet
  facet normal -0 0 1
    outer loop
      vertex -61.5 66.5 -3
      vertex -18.5 32.5 -3
      vertex -18.5 66.5 -3
    endloop
  endfacet
  facet normal 0 0 1
    outer loop
      vertex -18.5 32.5 -3
      vertex -61.5 66.5 -3
      vertex -61.5 32.5 -3
    endloop
  endfacet
  facet normal 1 -0 0
    outer loop
      vertex -61.5 32.5 5
      vertex -61.5 66.5 -3
      vertex -61.5 66.5 5
    endloop
  endfacet
  facet normal 1 0 0
    outer loop
      vertex -61.5 66.5 -3
      vertex -61.5 32.5 5
      vertex -61.5 32.5 -3
    endloop
  endfacet
  facet normal 0 1 -0
    outer loop
      vertex -18.5 32.5 -3
      vertex -61.5 32.5 5
      vertex -18.5 32.5 5
    endloop
  endfacet
  facet normal 0 1 0
    outer loop
      vertex -61.5 32.5 5
      vertex -18.5 32.5 -3
      vertex -61.5 32.5 -3
    endloop
  endfacet
  facet normal -0.406726 -0.91355 0
    outer loop
      vertex -58.7639 -50.1958 -3
      vertex -58 -50.5359 5
      vertex -58.7639 -50.1958 5
    endloop
  endfacet
  facet normal -0.406726 -0.91355 -0
    outer loop
      vertex -58 -50.5359 5
      vertex -58.7639 -50.1958 -3
      vertex -58 -50.5359 -3
    endloop
  endfacet
  facet normal -0.406726 0.91355 0
    outer loop
      vertex -58 -57.4641 -3
      vertex -58.7639 -57.8042 5
      vertex -58 -57.4641 5
    endloop
  endfacet
  facet normal -0.406726 0.91355 0
    outer loop
      vertex -58.7639 -57.8042 5
      vertex -58 -57.4641 -3
      vertex -58.7639 -57.8042 -3
    endloop
  endfacet
  facet normal -0.587781 -0.80902 0
    outer loop
      vertex -58 -50.5359 -3
      vertex -57.3235 -51.0274 5
      vertex -58 -50.5359 5
    endloop
  endfacet
  facet normal -0.587781 -0.80902 -0
    outer loop
      vertex -57.3235 -51.0274 5
      vertex -58 -50.5359 -3
      vertex -57.3235 -51.0274 -3
    endloop
  endfacet
  facet normal 0.994522 0.104523 0
    outer loop
      vertex -63.9126 -54.8316 5
      vertex -64 -54 -3
      vertex -64 -54 5
    endloop
  endfacet
  facet normal 0.994522 0.104523 0
    outer loop
      vertex -64 -54 -3
      vertex -63.9126 -54.8316 5
      vertex -63.9126 -54.8316 -3
    endloop
  endfacet
  facet normal -0.994522 0.104523 0
    outer loop
      vertex -56.0874 -54.8316 -3
      vertex -56 -54 5
      vertex -56 -54 -3
    endloop
  endfacet
  facet normal -0.994522 0.104523 0
    outer loop
      vertex -56 -54 5
      vertex -56.0874 -54.8316 -3
      vertex -56.0874 -54.8316 5
    endloop
  endfacet
  facet normal 0.95106 -0.309008 0
    outer loop
      vertex -63.9126 -53.1684 5
      vertex -63.6542 -52.3731 -3
      vertex -63.6542 -52.3731 5
    endloop
  endfacet
  facet normal 0.95106 -0.309008 0
    outer loop
      vertex -63.6542 -52.3731 -3
      vertex -63.9126 -53.1684 5
      vertex -63.9126 -53.1684 -3
    endloop
  endfacet
  facet normal -0.866034 -0.499985 0
    outer loop
      vertex -56.3458 -52.3731 -3
      vertex -56.7639 -51.6489 5
      vertex -56.7639 -51.6489 -3
    endloop
  endfacet
  facet normal -0.866034 -0.499985 0
    outer loop
      vertex -56.7639 -51.6489 5
      vertex -56.3458 -52.3731 -3
      vertex -56.3458 -52.3731 5
    endloop
  endfacet
  facet normal 0.743145 0.66913 0
    outer loop
      vertex -62.6765 -56.9726 5
      vertex -63.2361 -56.3511 -3
      vertex -63.2361 -56.3511 5
    endloop
  endfacet
  facet normal 0.743145 0.66913 0
    outer loop
      vertex -63.2361 -56.3511 -3
      vertex -62.6765 -56.9726 5
      vertex -62.6765 -56.9726 -3
    endloop
  endfacet
  facet normal 0.95106 0.309008 0
    outer loop
      vertex -63.6542 -55.6269 5
      vertex -63.9126 -54.8316 -3
      vertex -63.9126 -54.8316 5
    endloop
  endfacet
  facet normal 0.95106 0.309008 0
    outer loop
      vertex -63.9126 -54.8316 -3
      vertex -63.6542 -55.6269 5
      vertex -63.6542 -55.6269 -3
    endloop
  endfacet
  facet normal -0.587781 0.80902 0
    outer loop
      vertex -57.3235 -56.9726 -3
      vertex -58 -57.4641 5
      vertex -57.3235 -56.9726 5
    endloop
  endfacet
  facet normal -0.587781 0.80902 0
    outer loop
      vertex -58 -57.4641 5
      vertex -57.3235 -56.9726 -3
      vertex -58 -57.4641 -3
    endloop
  endfacet
  facet normal -0.743145 -0.66913 0
    outer loop
      vertex -56.7639 -51.6489 -3
      vertex -57.3235 -51.0274 5
      vertex -57.3235 -51.0274 -3
    endloop
  endfacet
  facet normal -0.743145 -0.66913 0
    outer loop
      vertex -57.3235 -51.0274 5
      vertex -56.7639 -51.6489 -3
      vertex -56.7639 -51.6489 5
    endloop
  endfacet
  facet normal -0.994522 -0.104523 0
    outer loop
      vertex -56 -54 -3
      vertex -56.0874 -53.1684 5
      vertex -56.0874 -53.1684 -3
    endloop
  endfacet
  facet normal -0.994522 -0.104523 0
    outer loop
      vertex -56.0874 -53.1684 5
      vertex -56 -54 -3
      vertex -56 -54 5
    endloop
  endfacet
  facet normal 0.406726 0.91355 -0
    outer loop
      vertex -61.2361 -57.8042 -3
      vertex -62 -57.4641 5
      vertex -61.2361 -57.8042 5
    endloop
  endfacet
  facet normal 0.406726 0.91355 0
    outer loop
      vertex -62 -57.4641 5
      vertex -61.2361 -57.8042 -3
      vertex -62 -57.4641 -3
    endloop
  endfacet
  facet normal 0.994522 -0.104523 0
    outer loop
      vertex -64 -54 5
      vertex -63.9126 -53.1684 -3
      vertex -63.9126 -53.1684 5
    endloop
  endfacet
  facet normal 0.994522 -0.104523 0
    outer loop
      vertex -63.9126 -53.1684 -3
      vertex -64 -54 5
      vertex -64 -54 -3
    endloop
  endfacet
  facet normal -0.95106 -0.309008 0
    outer loop
      vertex -56.0874 -53.1684 -3
      vertex -56.3458 -52.3731 5
      vertex -56.3458 -52.3731 -3
    endloop
  endfacet
  facet normal -0.95106 -0.309008 0
    outer loop
      vertex -56.3458 -52.3731 5
      vertex -56.0874 -53.1684 -3
      vertex -56.0874 -53.1684 5
    endloop
  endfacet
  facet normal 0.866034 -0.499985 0
    outer loop
      vertex -63.6542 -52.3731 5
      vertex -63.2361 -51.6489 -3
      vertex -63.2361 -51.6489 5
    endloop
  endfacet
  facet normal 0.866034 -0.499985 0
    outer loop
      vertex -63.2361 -51.6489 -3
      vertex -63.6542 -52.3731 5
      vertex -63.6542 -52.3731 -3
    endloop
  endfacet
  facet normal 0.207945 -0.978141 0
    outer loop
      vertex -61.2361 -50.1958 -3
      vertex -60.4181 -50.0219 5
      vertex -61.2361 -50.1958 5
    endloop
  endfacet
  facet normal 0.207945 -0.978141 0
    outer loop
      vertex -60.4181 -50.0219 5
      vertex -61.2361 -50.1958 -3
      vertex -60.4181 -50.0219 -3
    endloop
  endfacet
  facet normal 0.406726 -0.91355 0
    outer loop
      vertex -62 -50.5359 -3
      vertex -61.2361 -50.1958 5
      vertex -62 -50.5359 5
    endloop
  endfacet
  facet normal 0.406726 -0.91355 0
    outer loop
      vertex -61.2361 -50.1958 5
      vertex -62 -50.5359 -3
      vertex -61.2361 -50.1958 -3
    endloop
  endfacet
  facet normal -0.866034 0.499985 0
    outer loop
      vertex -56.7639 -56.3511 -3
      vertex -56.3458 -55.6269 5
      vertex -56.3458 -55.6269 -3
    endloop
  endfacet
  facet normal -0.866034 0.499985 0
    outer loop
      vertex -56.3458 -55.6269 5
      vertex -56.7639 -56.3511 -3
      vertex -56.7639 -56.3511 5
    endloop
  endfacet
  facet normal -0.207945 0.978141 0
    outer loop
      vertex -58.7639 -57.8042 -3
      vertex -59.5819 -57.9781 5
      vertex -58.7639 -57.8042 5
    endloop
  endfacet
  facet normal -0.207945 0.978141 0
    outer loop
      vertex -59.5819 -57.9781 5
      vertex -58.7639 -57.8042 -3
      vertex -59.5819 -57.9781 -3
    endloop
  endfacet
  facet normal 0.866034 0.499985 0
    outer loop
      vertex -63.2361 -56.3511 5
      vertex -63.6542 -55.6269 -3
      vertex -63.6542 -55.6269 5
    endloop
  endfacet
  facet normal 0.866034 0.499985 0
    outer loop
      vertex -63.6542 -55.6269 -3
      vertex -63.2361 -56.3511 5
      vertex -63.2361 -56.3511 -3
    endloop
  endfacet
  facet normal -0.207945 -0.978141 0
    outer loop
      vertex -59.5819 -50.0219 -3
      vertex -58.7639 -50.1958 5
      vertex -59.5819 -50.0219 5
    endloop
  endfacet
  facet normal -0.207945 -0.978141 -0
    outer loop
      vertex -58.7639 -50.1958 5
      vertex -59.5819 -50.0219 -3
      vertex -58.7639 -50.1958 -3
    endloop
  endfacet
  facet normal -0.743145 0.66913 0
    outer loop
      vertex -57.3235 -56.9726 -3
      vertex -56.7639 -56.3511 5
      vertex -56.7639 -56.3511 -3
    endloop
  endfacet
  facet normal -0.743145 0.66913 0
    outer loop
      vertex -56.7639 -56.3511 5
      vertex -57.3235 -56.9726 -3
      vertex -57.3235 -56.9726 5
    endloop
  endfacet
  facet normal 0.743145 -0.66913 0
    outer loop
      vertex -63.2361 -51.6489 5
      vertex -62.6765 -51.0274 -3
      vertex -62.6765 -51.0274 5
    endloop
  endfacet
  facet normal 0.743145 -0.66913 0
    outer loop
      vertex -62.6765 -51.0274 -3
      vertex -63.2361 -51.6489 5
      vertex -63.2361 -51.6489 -3
    endloop
  endfacet
  facet normal -0.95106 0.309008 0
    outer loop
      vertex -56.3458 -55.6269 -3
      vertex -56.0874 -54.8316 5
      vertex -56.0874 -54.8316 -3
    endloop
  endfacet
  facet normal -0.95106 0.309008 0
    outer loop
      vertex -56.0874 -54.8316 5
      vertex -56.3458 -55.6269 -3
      vertex -56.3458 -55.6269 5
    endloop
  endfacet
  facet normal 0 0 1
    outer loop
      vertex -56.0874 -53.1684 -3
      vertex -56.0874 -54.8316 -3
      vertex -56 -54 -3
    endloop
  endfacet
  facet normal 0 0 1
    outer loop
      vertex -56.3458 -52.3731 -3
      vertex -56.0874 -54.8316 -3
      vertex -56.0874 -53.1684 -3
    endloop
  endfacet
  facet normal 0 0 1
    outer loop
      vertex -56.3458 -52.3731 -3
      vertex -56.3458 -55.6269 -3
      vertex -56.0874 -54.8316 -3
    endloop
  endfacet
  facet normal 0 0 1
    outer loop
      vertex -56.7639 -51.6489 -3
      vertex -56.3458 -55.6269 -3
      vertex -56.3458 -52.3731 -3
    endloop
  endfacet
  facet normal 0 0 1
    outer loop
      vertex -56.7639 -51.6489 -3
      vertex -56.7639 -56.3511 -3
      vertex -56.3458 -55.6269 -3
    endloop
  endfacet
  facet normal 0 0 1
    outer loop
      vertex -57.3235 -51.0274 -3
      vertex -56.7639 -56.3511 -3
      vertex -56.7639 -51.6489 -3
    endloop
  endfacet
  facet normal 0 0 1
    outer loop
      vertex -57.3235 -51.0274 -3
      vertex -57.3235 -56.9726 -3
      vertex -56.7639 -56.3511 -3
    endloop
  endfacet
  facet normal 0 0 1
    outer loop
      vertex -58 -50.5359 -3
      vertex -57.3235 -56.9726 -3
      vertex -57.3235 -51.0274 -3
    endloop
  endfacet
  facet normal 0 0 1
    outer loop
      vertex -58 -50.5359 -3
      vertex -58 -57.4641 -3
      vertex -57.3235 -56.9726 -3
    endloop
  endfacet
  facet normal 0 0 1
    outer loop
      vertex -58.7639 -50.1958 -3
      vertex -58 -57.4641 -3
      vertex -58 -50.5359 -3
    endloop
  endfacet
  facet normal 0 0 1
    outer loop
      vertex -58.7639 -50.1958 -3
      vertex -58.7639 -57.8042 -3
      vertex -58 -57.4641 -3
    endloop
  endfacet
  facet normal 0 0 1
    outer loop
      vertex -59.5819 -50.0219 -3
      vertex -58.7639 -57.8042 -3
      vertex -58.7639 -50.1958 -3
    endloop
  endfacet
  facet normal 0 0 1
    outer loop
      vertex -59.5819 -50.0219 -3
      vertex -59.5819 -57.9781 -3
      vertex -58.7639 -57.8042 -3
    endloop
  endfacet
  facet normal -0 0 1
    outer loop
      vertex -60.4181 -50.0219 -3
      vertex -59.5819 -57.9781 -3
      vertex -59.5819 -50.0219 -3
    endloop
  endfacet
  facet normal 0 0 1
    outer loop
      vertex -60.4181 -50.0219 -3
      vertex -60.4181 -57.9781 -3
      vertex -59.5819 -57.9781 -3
    endloop
  endfacet
  facet normal -0 0 1
    outer loop
      vertex -61.2361 -50.1958 -3
      vertex -60.4181 -57.9781 -3
      vertex -60.4181 -50.0219 -3
    endloop
  endfacet
  facet normal 0 0 1
    outer loop
      vertex -61.2361 -50.1958 -3
      vertex -61.2361 -57.8042 -3
      vertex -60.4181 -57.9781 -3
    endloop
  endfacet
  facet normal -0 0 1
    outer loop
      vertex -62 -50.5359 -3
      vertex -61.2361 -57.8042 -3
      vertex -61.2361 -50.1958 -3
    endloop
  endfacet
  facet normal 0 0 1
    outer loop
      vertex -62 -50.5359 -3
      vertex -62 -57.4641 -3
      vertex -61.2361 -57.8042 -3
    endloop
  endfacet
  facet normal -0 0 1
    outer loop
      vertex -62.6765 -51.0274 -3
      vertex -62 -57.4641 -3
      vertex -62 -50.5359 -3
    endloop
  endfacet
  facet normal 0 0 1
    outer loop
      vertex -62.6765 -51.0274 -3
      vertex -62.6765 -56.9726 -3
      vertex -62 -57.4641 -3
    endloop
  endfacet
  facet normal -0 0 1
    outer loop
      vertex -63.2361 -51.6489 -3
      vertex -62.6765 -56.9726 -3
      vertex -62.6765 -51.0274 -3
    endloop
  endfacet
  facet normal 0 0 1
    outer loop
      vertex -63.2361 -51.6489 -3
      vertex -63.2361 -56.3511 -3
      vertex -62.6765 -56.9726 -3
    endloop
  endfacet
  facet normal -0 0 1
    outer loop
      vertex -63.6542 -52.3731 -3
      vertex -63.2361 -56.3511 -3
      vertex -63.2361 -51.6489 -3
    endloop
  endfacet
  facet normal 0 0 1
    outer loop
      vertex -63.6542 -52.3731 -3
      vertex -63.6542 -55.6269 -3
      vertex -63.2361 -56.3511 -3
    endloop
  endfacet
  facet normal -0 0 1
    outer loop
      vertex -63.9126 -53.1684 -3
      vertex -63.6542 -55.6269 -3
      vertex -63.6542 -52.3731 -3
    endloop
  endfacet
  facet normal 0 0 1
    outer loop
      vertex -63.9126 -53.1684 -3
      vertex -63.9126 -54.8316 -3
      vertex -63.6542 -55.6269 -3
    endloop
  endfacet
  facet normal 0 -0 1
    outer loop
      vertex -63.9126 -54.8316 -3
      vertex -63.9126 -53.1684 -3
      vertex -64 -54 -3
    endloop
  endfacet
  facet normal 0.587781 0.80902 -0
    outer loop
      vertex -62 -57.4641 -3
      vertex -62.6765 -56.9726 5
      vertex -62 -57.4641 5
    endloop
  endfacet
  facet normal 0.587781 0.80902 0
    outer loop
      vertex -62.6765 -56.9726 5
      vertex -62 -57.4641 -3
      vertex -62.6765 -56.9726 -3
    endloop
  endfacet
  facet normal 0 -1 0
    outer loop
      vertex -60.4181 -50.0219 -3
      vertex -59.5819 -50.0219 5
      vertex -60.4181 -50.0219 5
    endloop
  endfacet
  facet normal 0 -1 -0
    outer loop
      vertex -59.5819 -50.0219 5
      vertex -60.4181 -50.0219 -3
      vertex -59.5819 -50.0219 -3
    endloop
  endfacet
  facet normal 0.587781 -0.80902 0
    outer loop
      vertex -62.6765 -51.0274 -3
      vertex -62 -50.5359 5
      vertex -62.6765 -51.0274 5
    endloop
  endfacet
  facet normal 0.587781 -0.80902 0
    outer loop
      vertex -62 -50.5359 5
      vertex -62.6765 -51.0274 -3
      vertex -62 -50.5359 -3
    endloop
  endfacet
  facet normal 0 1 -0
    outer loop
      vertex -59.5819 -57.9781 -3
      vertex -60.4181 -57.9781 5
      vertex -59.5819 -57.9781 5
    endloop
  endfacet
  facet normal 0 1 0
    outer loop
      vertex -60.4181 -57.9781 5
      vertex -59.5819 -57.9781 -3
      vertex -60.4181 -57.9781 -3
    endloop
  endfacet
  facet normal 0.207945 0.978141 -0
    outer loop
      vertex -60.4181 -57.9781 -3
      vertex -61.2361 -57.8042 5
      vertex -60.4181 -57.9781 5
    endloop
  endfacet
  facet normal 0.207945 0.978141 0
    outer loop
      vertex -61.2361 -57.8042 5
      vertex -60.4181 -57.9781 -3
      vertex -61.2361 -57.8042 -3
    endloop
  endfacet
  facet normal 0 -1 0
    outer loop
      vertex 34.5819 57.9781 -3
      vertex 35.4181 57.9781 5
      vertex 34.5819 57.9781 5
    endloop
  endfacet
  facet normal 0 -1 -0
    outer loop
      vertex 35.4181 57.9781 5
      vertex 34.5819 57.9781 -3
      vertex 35.4181 57.9781 -3
    endloop
  endfacet
  facet normal -0.994522 0.104523 0
    outer loop
      vertex 38.9126 53.1684 -3
      vertex 39 54 5
      vertex 39 54 -3
    endloop
  endfacet
  facet normal -0.994522 0.104523 0
    outer loop
      vertex 39 54 5
      vertex 38.9126 53.1684 -3
      vertex 38.9126 53.1684 5
    endloop
  endfacet
  facet normal -0.95106 -0.309008 0
    outer loop
      vertex 38.9126 54.8316 -3
      vertex 38.6542 55.6269 5
      vertex 38.6542 55.6269 -3
    endloop
  endfacet
  facet normal -0.95106 -0.309008 0
    outer loop
      vertex 38.6542 55.6269 5
      vertex 38.9126 54.8316 -3
      vertex 38.9126 54.8316 5
    endloop
  endfacet
  facet normal -0.994522 -0.104523 0
    outer loop
      vertex 39 54 -3
      vertex 38.9126 54.8316 5
      vertex 38.9126 54.8316 -3
    endloop
  endfacet
  facet normal -0.994522 -0.104523 0
    outer loop
      vertex 38.9126 54.8316 5
      vertex 39 54 -3
      vertex 39 54 5
    endloop
  endfacet
  facet normal -0.866034 -0.499985 0
    outer loop
      vertex 38.6542 55.6269 -3
      vertex 38.2361 56.3511 5
      vertex 38.2361 56.3511 -3
    endloop
  endfacet
  facet normal -0.866034 -0.499985 0
    outer loop
      vertex 38.2361 56.3511 5
      vertex 38.6542 55.6269 -3
      vertex 38.6542 55.6269 5
    endloop
  endfacet
  facet normal -0.406726 0.91355 0
    outer loop
      vertex 37 50.5359 -3
      vertex 36.2361 50.1958 5
      vertex 37 50.5359 5
    endloop
  endfacet
  facet normal -0.406726 0.91355 0
    outer loop
      vertex 36.2361 50.1958 5
      vertex 37 50.5359 -3
      vertex 36.2361 50.1958 -3
    endloop
  endfacet
  facet normal 0.743145 -0.66913 0
    outer loop
      vertex 31.7639 56.3511 5
      vertex 32.3235 56.9726 -3
      vertex 32.3235 56.9726 5
    endloop
  endfacet
  facet normal 0.743145 -0.66913 0
    outer loop
      vertex 32.3235 56.9726 -3
      vertex 31.7639 56.3511 5
      vertex 31.7639 56.3511 -3
    endloop
  endfacet
  facet normal -0.743145 -0.66913 0
    outer loop
      vertex 38.2361 56.3511 -3
      vertex 37.6765 56.9726 5
      vertex 37.6765 56.9726 -3
    endloop
  endfacet
  facet normal -0.743145 -0.66913 0
    outer loop
      vertex 37.6765 56.9726 5
      vertex 38.2361 56.3511 -3
      vertex 38.2361 56.3511 5
    endloop
  endfacet
  facet normal 0 1 -0
    outer loop
      vertex 35.4181 50.0219 -3
      vertex 34.5819 50.0219 5
      vertex 35.4181 50.0219 5
    endloop
  endfacet
  facet normal 0 1 0
    outer loop
      vertex 34.5819 50.0219 5
      vertex 35.4181 50.0219 -3
      vertex 34.5819 50.0219 -3
    endloop
  endfacet
  facet normal 0.406726 -0.91355 0
    outer loop
      vertex 33 57.4641 -3
      vertex 33.7639 57.8042 5
      vertex 33 57.4641 5
    endloop
  endfacet
  facet normal 0.406726 -0.91355 0
    outer loop
      vertex 33.7639 57.8042 5
      vertex 33 57.4641 -3
      vertex 33.7639 57.8042 -3
    endloop
  endfacet
  facet normal -0.587781 -0.80902 0
    outer loop
      vertex 37 57.4641 -3
      vertex 37.6765 56.9726 5
      vertex 37 57.4641 5
    endloop
  endfacet
  facet normal -0.587781 -0.80902 -0
    outer loop
      vertex 37.6765 56.9726 5
      vertex 37 57.4641 -3
      vertex 37.6765 56.9726 -3
    endloop
  endfacet
  facet normal 0.994522 -0.104523 0
    outer loop
      vertex 31 54 5
      vertex 31.0874 54.8316 -3
      vertex 31.0874 54.8316 5
    endloop
  endfacet
  facet normal 0.994522 -0.104523 0
    outer loop
      vertex 31.0874 54.8316 -3
      vertex 31 54 5
      vertex 31 54 -3
    endloop
  endfacet
  facet normal 0.743145 0.66913 0
    outer loop
      vertex 32.3235 51.0274 5
      vertex 31.7639 51.6489 -3
      vertex 31.7639 51.6489 5
    endloop
  endfacet
  facet normal 0.743145 0.66913 0
    outer loop
      vertex 31.7639 51.6489 -3
      vertex 32.3235 51.0274 5
      vertex 32.3235 51.0274 -3
    endloop
  endfacet
  facet normal -0.743145 0.66913 0
    outer loop
      vertex 37.6765 51.0274 -3
      vertex 38.2361 51.6489 5
      vertex 38.2361 51.6489 -3
    endloop
  endfacet
  facet normal -0.743145 0.66913 0
    outer loop
      vertex 38.2361 51.6489 5
      vertex 37.6765 51.0274 -3
      vertex 37.6765 51.0274 5
    endloop
  endfacet
  facet normal 0.587781 0.80902 -0
    outer loop
      vertex 33 50.5359 -3
      vertex 32.3235 51.0274 5
      vertex 33 50.5359 5
    endloop
  endfacet
  facet normal 0.587781 0.80902 0
    outer loop
      vertex 32.3235 51.0274 5
      vertex 33 50.5359 -3
      vertex 32.3235 51.0274 -3
    endloop
  endfacet
  facet normal -0.587781 0.80902 0
    outer loop
      vertex 37.6765 51.0274 -3
      vertex 37 50.5359 5
      vertex 37.6765 51.0274 5
    endloop
  endfacet
  facet normal -0.587781 0.80902 0
    outer loop
      vertex 37 50.5359 5
      vertex 37.6765 51.0274 -3
      vertex 37 50.5359 -3
    endloop
  endfacet
  facet normal -0.207945 0.978141 0
    outer loop
      vertex 36.2361 50.1958 -3
      vertex 35.4181 50.0219 5
      vertex 36.2361 50.1958 5
    endloop
  endfacet
  facet normal -0.207945 0.978141 0
    outer loop
      vertex 35.4181 50.0219 5
      vertex 36.2361 50.1958 -3
      vertex 35.4181 50.0219 -3
    endloop
  endfacet
  facet normal -0.866034 0.499985 0
    outer loop
      vertex 38.2361 51.6489 -3
      vertex 38.6542 52.3731 5
      vertex 38.6542 52.3731 -3
    endloop
  endfacet
  facet normal -0.866034 0.499985 0
    outer loop
      vertex 38.6542 52.3731 5
      vertex 38.2361 51.6489 -3
      vertex 38.2361 51.6489 5
    endloop
  endfacet
  facet normal 0.207945 0.978141 -0
    outer loop
      vertex 34.5819 50.0219 -3
      vertex 33.7639 50.1958 5
      vertex 34.5819 50.0219 5
    endloop
  endfacet
  facet normal 0.207945 0.978141 0
    outer loop
      vertex 33.7639 50.1958 5
      vertex 34.5819 50.0219 -3
      vertex 33.7639 50.1958 -3
    endloop
  endfacet
  facet normal 0.866034 -0.499985 0
    outer loop
      vertex 31.3458 55.6269 5
      vertex 31.7639 56.3511 -3
      vertex 31.7639 56.3511 5
    endloop
  endfacet
  facet normal 0.866034 -0.499985 0
    outer loop
      vertex 31.7639 56.3511 -3
      vertex 31.3458 55.6269 5
      vertex 31.3458 55.6269 -3
    endloop
  endfacet
  facet normal 0.587781 -0.80902 0
    outer loop
      vertex 32.3235 56.9726 -3
      vertex 33 57.4641 5
      vertex 32.3235 56.9726 5
    endloop
  endfacet
  facet normal 0.587781 -0.80902 0
    outer loop
      vertex 33 57.4641 5
      vertex 32.3235 56.9726 -3
      vertex 33 57.4641 -3
    endloop
  endfacet
  facet normal -0.406726 -0.91355 0
    outer loop
      vertex 36.2361 57.8042 -3
      vertex 37 57.4641 5
      vertex 36.2361 57.8042 5
    endloop
  endfacet
  facet normal -0.406726 -0.91355 -0
    outer loop
      vertex 37 57.4641 5
      vertex 36.2361 57.8042 -3
      vertex 37 57.4641 -3
    endloop
  endfacet
  facet normal -0.95106 0.309008 0
    outer loop
      vertex 38.6542 52.3731 -3
      vertex 38.9126 53.1684 5
      vertex 38.9126 53.1684 -3
    endloop
  endfacet
  facet normal -0.95106 0.309008 0
    outer loop
      vertex 38.9126 53.1684 5
      vertex 38.6542 52.3731 -3
      vertex 38.6542 52.3731 5
    endloop
  endfacet
  facet normal -0.207945 -0.978141 0
    outer loop
      vertex 35.4181 57.9781 -3
      vertex 36.2361 57.8042 5
      vertex 35.4181 57.9781 5
    endloop
  endfacet
  facet normal -0.207945 -0.978141 -0
    outer loop
      vertex 36.2361 57.8042 5
      vertex 35.4181 57.9781 -3
      vertex 36.2361 57.8042 -3
    endloop
  endfacet
  facet normal 0.406726 0.91355 -0
    outer loop
      vertex 33.7639 50.1958 -3
      vertex 33 50.5359 5
      vertex 33.7639 50.1958 5
    endloop
  endfacet
  facet normal 0.406726 0.91355 0
    outer loop
      vertex 33 50.5359 5
      vertex 33.7639 50.1958 -3
      vertex 33 50.5359 -3
    endloop
  endfacet
  facet normal 0.95106 -0.309008 0
    outer loop
      vertex 31.0874 54.8316 5
      vertex 31.3458 55.6269 -3
      vertex 31.3458 55.6269 5
    endloop
  endfacet
  facet normal 0.95106 -0.309008 0
    outer loop
      vertex 31.3458 55.6269 -3
      vertex 31.0874 54.8316 5
      vertex 31.0874 54.8316 -3
    endloop
  endfacet
  facet normal 0.207945 -0.978141 0
    outer loop
      vertex 33.7639 57.8042 -3
      vertex 34.5819 57.9781 5
      vertex 33.7639 57.8042 5
    endloop
  endfacet
  facet normal 0.207945 -0.978141 0
    outer loop
      vertex 34.5819 57.9781 5
      vertex 33.7639 57.8042 -3
      vertex 34.5819 57.9781 -3
    endloop
  endfacet
  facet normal 0.95106 0.309008 0
    outer loop
      vertex 31.3458 52.3731 5
      vertex 31.0874 53.1684 -3
      vertex 31.0874 53.1684 5
    endloop
  endfacet
  facet normal 0.95106 0.309008 0
    outer loop
      vertex 31.0874 53.1684 -3
      vertex 31.3458 52.3731 5
      vertex 31.3458 52.3731 -3
    endloop
  endfacet
  facet normal 0 0 1
    outer loop
      vertex 38.9126 54.8316 -3
      vertex 38.9126 53.1684 -3
      vertex 39 54 -3
    endloop
  endfacet
  facet normal 0 0 1
    outer loop
      vertex 38.6542 55.6269 -3
      vertex 38.9126 53.1684 -3
      vertex 38.9126 54.8316 -3
    endloop
  endfacet
  facet normal 0 0 1
    outer loop
      vertex 38.6542 55.6269 -3
      vertex 38.6542 52.3731 -3
      vertex 38.9126 53.1684 -3
    endloop
  endfacet
  facet normal 0 0 1
    outer loop
      vertex 38.2361 56.3511 -3
      vertex 38.6542 52.3731 -3
      vertex 38.6542 55.6269 -3
    endloop
  endfacet
  facet normal 0 0 1
    outer loop
      vertex 38.2361 56.3511 -3
      vertex 38.2361 51.6489 -3
      vertex 38.6542 52.3731 -3
    endloop
  endfacet
  facet normal 0 0 1
    outer loop
      vertex 37.6765 56.9726 -3
      vertex 38.2361 51.6489 -3
      vertex 38.2361 56.3511 -3
    endloop
  endfacet
  facet normal 0 0 1
    outer loop
      vertex 37.6765 56.9726 -3
      vertex 37.6765 51.0274 -3
      vertex 38.2361 51.6489 -3
    endloop
  endfacet
  facet normal 0 0 1
    outer loop
      vertex 37 57.4641 -3
      vertex 37.6765 51.0274 -3
      vertex 37.6765 56.9726 -3
    endloop
  endfacet
  facet normal 0 0 1
    outer loop
      vertex 37 57.4641 -3
      vertex 37 50.5359 -3
      vertex 37.6765 51.0274 -3
    endloop
  endfacet
  facet normal 0 0 1
    outer loop
      vertex 36.2361 57.8042 -3
      vertex 37 50.5359 -3
      vertex 37 57.4641 -3
    endloop
  endfacet
  facet normal 0 0 1
    outer loop
      vertex 36.2361 57.8042 -3
      vertex 36.2361 50.1958 -3
      vertex 37 50.5359 -3
    endloop
  endfacet
  facet normal 0 0 1
    outer loop
      vertex 35.4181 57.9781 -3
      vertex 36.2361 50.1958 -3
      vertex 36.2361 57.8042 -3
    endloop
  endfacet
  facet normal 0 0 1
    outer loop
      vertex 35.4181 57.9781 -3
      vertex 35.4181 50.0219 -3
      vertex 36.2361 50.1958 -3
    endloop
  endfacet
  facet normal -0 0 1
    outer loop
      vertex 34.5819 57.9781 -3
      vertex 35.4181 50.0219 -3
      vertex 35.4181 57.9781 -3
    endloop
  endfacet
  facet normal 0 0 1
    outer loop
      vertex 34.5819 57.9781 -3
      vertex 34.5819 50.0219 -3
      vertex 35.4181 50.0219 -3
    endloop
  endfacet
  facet normal -0 0 1
    outer loop
      vertex 33.7639 57.8042 -3
      vertex 34.5819 50.0219 -3
      vertex 34.5819 57.9781 -3
    endloop
  endfacet
  facet normal 0 0 1
    outer loop
      vertex 33.7639 57.8042 -3
      vertex 33.7639 50.1958 -3
      vertex 34.5819 50.0219 -3
    endloop
  endfacet
  facet normal -0 0 1
    outer loop
      vertex 33 57.4641 -3
      vertex 33.7639 50.1958 -3
      vertex 33.7639 57.8042 -3
    endloop
  endfacet
  facet normal 0 0 1
    outer loop
      vertex 33 57.4641 -3
      vertex 33 50.5359 -3
      vertex 33.7639 50.1958 -3
    endloop
  endfacet
  facet normal -0 0 1
    outer loop
      vertex 32.3235 56.9726 -3
      vertex 33 50.5359 -3
      vertex 33 57.4641 -3
    endloop
  endfacet
  facet normal 0 0 1
    outer loop
      vertex 32.3235 56.9726 -3
      vertex 32.3235 51.0274 -3
      vertex 33 50.5359 -3
    endloop
  endfacet
  facet normal -0 0 1
    outer loop
      vertex 31.7639 56.3511 -3
      vertex 32.3235 51.0274 -3
      vertex 32.3235 56.9726 -3
    endloop
  endfacet
  facet normal 0 0 1
    outer loop
      vertex 31.7639 56.3511 -3
      vertex 31.7639 51.6489 -3
      vertex 32.3235 51.0274 -3
    endloop
  endfacet
  facet normal -0 0 1
    outer loop
      vertex 31.3458 55.6269 -3
      vertex 31.7639 51.6489 -3
      vertex 31.7639 56.3511 -3
    endloop
  endfacet
  facet normal 0 0 1
    outer loop
      vertex 31.3458 55.6269 -3
      vertex 31.3458 52.3731 -3
      vertex 31.7639 51.6489 -3
    endloop
  endfacet
  facet normal -0 0 1
    outer loop
      vertex 31.0874 54.8316 -3
      vertex 31.3458 52.3731 -3
      vertex 31.3458 55.6269 -3
    endloop
  endfacet
  facet normal 0 0 1
    outer loop
      vertex 31.0874 54.8316 -3
      vertex 31.0874 53.1684 -3
      vertex 31.3458 52.3731 -3
    endloop
  endfacet
  facet normal 0 -0 1
    outer loop
      vertex 31.0874 53.1684 -3
      vertex 31.0874 54.8316 -3
      vertex 31 54 -3
    endloop
  endfacet
  facet normal 0.866034 0.499985 0
    outer loop
      vertex 31.7639 51.6489 5
      vertex 31.3458 52.3731 -3
      vertex 31.3458 52.3731 5
    endloop
  endfacet
  facet normal 0.866034 0.499985 0
    outer loop
      vertex 31.3458 52.3731 -3
      vertex 31.7639 51.6489 5
      vertex 31.7639 51.6489 -3
    endloop
  endfacet
  facet normal 0.994522 0.104523 0
    outer loop
      vertex 31.0874 53.1684 5
      vertex 31 54 -3
      vertex 31 54 5
    endloop
  endfacet
  facet normal 0.994522 0.104523 0
    outer loop
      vertex 31 54 -3
      vertex 31.0874 53.1684 5
      vertex 31.0874 53.1684 -3
    endloop
  endfacet
  facet normal 1 -0 0
    outer loop
      vertex 40 -32.5 55
      vertex 40 37.5 5
      vertex 40 37.5 55
    endloop
  endfacet
  facet normal 1 0 0
    outer loop
      vertex 40 37.5 5
      vertex 40 -32.5 55
      vertex 40 -32.5 5
    endloop
  endfacet
  facet normal 0 0 1
    outer loop
      vertex 35 -27.5 55
      vertex 40 37.5 55
      vertex 35 37.5 55
    endloop
  endfacet
  facet normal 0 0 1
    outer loop
      vertex 40 37.5 55
      vertex 35 -27.5 55
      vertex 40 -32.5 55
    endloop
  endfacet
  facet normal 0 0 1
    outer loop
      vertex -20 -32.5 55
      vertex 35 -27.5 55
      vertex -20 -27.5 55
    endloop
  endfacet
  facet normal 0 0 1
    outer loop
      vertex 35 -27.5 55
      vertex -20 -32.5 55
      vertex 40 -32.5 55
    endloop
  endfacet
  facet normal -1 0 0
    outer loop
      vertex 35 -27.5 5
      vertex 35 37.5 55
      vertex 35 37.5 5
    endloop
  endfacet
  facet normal -1 -0 0
    outer loop
      vertex 35 37.5 55
      vertex 35 -27.5 5
      vertex 35 -27.5 55
    endloop
  endfacet
  facet normal 0 1 -0
    outer loop
      vertex 40 37.5 5
      vertex 35 37.5 55
      vertex 40 37.5 55
    endloop
  endfacet
  facet normal 0 1 0
    outer loop
      vertex 35 37.5 55
      vertex 40 37.5 5
      vertex 35 37.5 5
    endloop
  endfacet
  facet normal 0 -1 0
    outer loop
      vertex -20 -32.5 5
      vertex 40 -32.5 55
      vertex -20 -32.5 55
    endloop
  endfacet
  facet normal 0 -1 -0
    outer loop
      vertex 40 -32.5 55
      vertex -20 -32.5 5
      vertex 40 -32.5 5
    endloop
  endfacet
  facet normal -1 0 0
    outer loop
      vertex -20 -32.5 5
      vertex -20 -27.5 55
      vertex -20 -27.5 5
    endloop
  endfacet
  facet normal -1 -0 0
    outer loop
      vertex -20 -27.5 55
      vertex -20 -32.5 5
      vertex -20 -32.5 55
    endloop
  endfacet
  facet normal 0 1 -0
    outer loop
      vertex 35 -27.5 5
      vertex -20 -27.5 55
      vertex 35 -27.5 55
    endloop
  endfacet
  facet normal 0 1 0
    outer loop
      vertex -20 -27.5 55
      vertex 35 -27.5 5
      vertex -20 -27.5 5
    endloop
  endfacet
endsolid OpenSCAD_Model
