solid OpenSCAD_Model
  facet normal 1 -0 0
    outer loop
      vertex 105 -95 4
      vertex 105 75 -4
      vertex 105 75 4
    endloop
  endfacet
  facet normal 1 0 0
    outer loop
      vertex 105 75 -4
      vertex 105 -95 4
      vertex 105 -95 -4
    endloop
  endfacet
  facet normal -0 0 1
    outer loop
      vertex -105 75 4
      vertex 105 -95 4
      vertex 105 75 4
    endloop
  endfacet
  facet normal 0 0 1
    outer loop
      vertex 105 -95 4
      vertex -105 75 4
      vertex -105 -95 4
    endloop
  endfacet
  facet normal 0 0 -1
    outer loop
      vertex 88.2361 57.6489 -4
      vertex 105 75 -4
      vertex 105 -95 -4
    endloop
  endfacet
  facet normal 0 0 -1
    outer loop
      vertex 105 75 -4
      vertex 88.9126 59.1684 -4
      vertex 89 60 -4
    endloop
  endfacet
  facet normal 0 0 -1
    outer loop
      vertex 105 75 -4
      vertex 88.6542 58.3731 -4
      vertex 88.9126 59.1684 -4
    endloop
  endfacet
  facet normal 0 0 -1
    outer loop
      vertex 105 75 -4
      vertex 88.2361 57.6489 -4
      vertex 88.6542 58.3731 -4
    endloop
  endfacet
  facet normal 0 0 -1
    outer loop
      vertex 105 -95 -4
      vertex 87.6765 57.0274 -4
      vertex 88.2361 57.6489 -4
    endloop
  endfacet
  facet normal 0 0 -1
    outer loop
      vertex 105 -95 -4
      vertex 87 56.5359 -4
      vertex 87.6765 57.0274 -4
    endloop
  endfacet
  facet normal 0 0 -1
    outer loop
      vertex 105 -95 -4
      vertex 86.2361 56.1958 -4
      vertex 87 56.5359 -4
    endloop
  endfacet
  facet normal 0 0 -1
    outer loop
      vertex 105 -95 -4
      vertex 85.4181 56.0219 -4
      vertex 86.2361 56.1958 -4
    endloop
  endfacet
  facet normal 0 0 -1
    outer loop
      vertex 105 -95 -4
      vertex 84.5819 56.0219 -4
      vertex 85.4181 56.0219 -4
    endloop
  endfacet
  facet normal 0 0 -1
    outer loop
      vertex 105 -95 -4
      vertex 83.7639 56.1958 -4
      vertex 84.5819 56.0219 -4
    endloop
  endfacet
  facet normal 0 0 -1
    outer loop
      vertex -6.34582 -63.3731 -4
      vertex 83.7639 56.1958 -4
      vertex 105 -95 -4
    endloop
  endfacet
  facet normal 0 0 -1
    outer loop
      vertex -6.76393 -62.6489 -4
      vertex 83.7639 56.1958 -4
      vertex -6.34582 -63.3731 -4
    endloop
  endfacet
  facet normal -0 0 -1
    outer loop
      vertex 83.7639 56.1958 -4
      vertex -6.76393 -62.6489 -4
      vertex 83 56.5359 -4
    endloop
  endfacet
  facet normal 0 0 -1
    outer loop
      vertex -7.32348 -62.0274 -4
      vertex 83 56.5359 -4
      vertex -6.76393 -62.6489 -4
    endloop
  endfacet
  facet normal -0 0 -1
    outer loop
      vertex 83 56.5359 -4
      vertex -7.32348 -62.0274 -4
      vertex 82.3235 57.0274 -4
    endloop
  endfacet
  facet normal 0 0 -1
    outer loop
      vertex -6.34582 -63.3731 -4
      vertex 105 -95 -4
      vertex -6.08741 -64.1684 -4
    endloop
  endfacet
  facet normal 0 0 -1
    outer loop
      vertex -6.08741 -64.1684 -4
      vertex 105 -95 -4
      vertex -6 -65 -4
    endloop
  endfacet
  facet normal 0 0 -1
    outer loop
      vertex 105 -95 -4
      vertex -6.08741 -65.8316 -4
      vertex -6 -65 -4
    endloop
  endfacet
  facet normal 0 0 -1
    outer loop
      vertex 105 -95 -4
      vertex -6.34582 -66.6269 -4
      vertex -6.08741 -65.8316 -4
    endloop
  endfacet
  facet normal 0 0 -1
    outer loop
      vertex 105 -95 -4
      vertex -6.76393 -67.3511 -4
      vertex -6.34582 -66.6269 -4
    endloop
  endfacet
  facet normal 0 0 -1
    outer loop
      vertex 105 -95 -4
      vertex -7.32348 -67.9726 -4
      vertex -6.76393 -67.3511 -4
    endloop
  endfacet
  facet normal 0 0 -1
    outer loop
      vertex 105 -95 -4
      vertex -8 -68.4641 -4
      vertex -7.32348 -67.9726 -4
    endloop
  endfacet
  facet normal 0 0 -1
    outer loop
      vertex 105 -95 -4
      vertex -8.76393 -68.8042 -4
      vertex -8 -68.4641 -4
    endloop
  endfacet
  facet normal 0 0 -1
    outer loop
      vertex 105 -95 -4
      vertex -9.58189 -68.9781 -4
      vertex -8.76393 -68.8042 -4
    endloop
  endfacet
  facet normal 0 0 -1
    outer loop
      vertex -105 -95 -4
      vertex -9.58189 -68.9781 -4
      vertex 105 -95 -4
    endloop
  endfacet
  facet normal -0 0 -1
    outer loop
      vertex -9.58189 -68.9781 -4
      vertex -105 -95 -4
      vertex -10.4181 -68.9781 -4
    endloop
  endfacet
  facet normal 0 0 -1
    outer loop
      vertex -105 -95 -4
      vertex -14 -65 -4
      vertex -13.9126 -65.8316 -4
    endloop
  endfacet
  facet normal 0 0 -1
    outer loop
      vertex -105 -95 -4
      vertex -13.9126 -65.8316 -4
      vertex -13.6542 -66.6269 -4
    endloop
  endfacet
  facet normal 0 0 -1
    outer loop
      vertex -14 -65 -4
      vertex -81.0874 59.1684 -4
      vertex -81 60 -4
    endloop
  endfacet
  facet normal 0 0 -1
    outer loop
      vertex -14 -65 -4
      vertex -81.3458 58.3731 -4
      vertex -81.0874 59.1684 -4
    endloop
  endfacet
  facet normal 0 0 -1
    outer loop
      vertex -14 -65 -4
      vertex -81.7639 57.6489 -4
      vertex -81.3458 58.3731 -4
    endloop
  endfacet
  facet normal 0 0 -1
    outer loop
      vertex -14 -65 -4
      vertex -82.3235 57.0274 -4
      vertex -81.7639 57.6489 -4
    endloop
  endfacet
  facet normal 0 0 -1
    outer loop
      vertex -14 -65 -4
      vertex -83 56.5359 -4
      vertex -82.3235 57.0274 -4
    endloop
  endfacet
  facet normal 0 0 -1
    outer loop
      vertex -14 -65 -4
      vertex -83.7639 56.1958 -4
      vertex -83 56.5359 -4
    endloop
  endfacet
  facet normal 0 0 -1
    outer loop
      vertex -14 -65 -4
      vertex -84.5819 56.0219 -4
      vertex -83.7639 56.1958 -4
    endloop
  endfacet
  facet normal 0 0 -1
    outer loop
      vertex -105 -95 -4
      vertex -13.6542 -66.6269 -4
      vertex -13.2361 -67.3511 -4
    endloop
  endfacet
  facet normal -0 0 -1
    outer loop
      vertex -14 -65 -4
      vertex -105 -95 -4
      vertex -84.5819 56.0219 -4
    endloop
  endfacet
  facet normal -0 0 -1
    outer loop
      vertex -84.5819 56.0219 -4
      vertex -105 -95 -4
      vertex -85.4181 56.0219 -4
    endloop
  endfacet
  facet normal -0 0 -1
    outer loop
      vertex -85.4181 56.0219 -4
      vertex -105 -95 -4
      vertex -86.2361 56.1958 -4
    endloop
  endfacet
  facet normal -0 0 -1
    outer loop
      vertex -86.2361 56.1958 -4
      vertex -105 -95 -4
      vertex -87 56.5359 -4
    endloop
  endfacet
  facet normal -0 0 -1
    outer loop
      vertex -87 56.5359 -4
      vertex -105 -95 -4
      vertex -87.6765 57.0274 -4
    endloop
  endfacet
  facet normal 0 0 -1
    outer loop
      vertex -88.6542 58.3731 -4
      vertex -105 75 -4
      vertex -88.9126 59.1684 -4
    endloop
  endfacet
  facet normal 0 0 -1
    outer loop
      vertex -88.2361 57.6489 -4
      vertex -105 75 -4
      vertex -88.6542 58.3731 -4
    endloop
  endfacet
  facet normal 0 0 -1
    outer loop
      vertex -105 75 -4
      vertex -88.2361 57.6489 -4
      vertex -105 -95 -4
    endloop
  endfacet
  facet normal -0 0 -1
    outer loop
      vertex -87.6765 57.0274 -4
      vertex -105 -95 -4
      vertex -88.2361 57.6489 -4
    endloop
  endfacet
  facet normal -0 0 -1
    outer loop
      vertex -12.6765 -67.9726 -4
      vertex -105 -95 -4
      vertex -13.2361 -67.3511 -4
    endloop
  endfacet
  facet normal -0 0 -1
    outer loop
      vertex -12 -68.4641 -4
      vertex -105 -95 -4
      vertex -12.6765 -67.9726 -4
    endloop
  endfacet
  facet normal -0 0 -1
    outer loop
      vertex -11.2361 -68.8042 -4
      vertex -105 -95 -4
      vertex -12 -68.4641 -4
    endloop
  endfacet
  facet normal -0 0 -1
    outer loop
      vertex -10.4181 -68.9781 -4
      vertex -105 -95 -4
      vertex -11.2361 -68.8042 -4
    endloop
  endfacet
  facet normal 0 0 -1
    outer loop
      vertex 88.9126 60.8316 -4
      vertex 105 75 -4
      vertex 89 60 -4
    endloop
  endfacet
  facet normal 0 0 -1
    outer loop
      vertex 88.6542 61.6269 -4
      vertex 105 75 -4
      vertex 88.9126 60.8316 -4
    endloop
  endfacet
  facet normal 0 0 -1
    outer loop
      vertex 88.2361 62.3511 -4
      vertex 105 75 -4
      vertex 88.6542 61.6269 -4
    endloop
  endfacet
  facet normal 0 0 -1
    outer loop
      vertex 87.6765 62.9726 -4
      vertex 105 75 -4
      vertex 88.2361 62.3511 -4
    endloop
  endfacet
  facet normal 0 0 -1
    outer loop
      vertex 87 63.4641 -4
      vertex 105 75 -4
      vertex 87.6765 62.9726 -4
    endloop
  endfacet
  facet normal 0 0 -1
    outer loop
      vertex 86.2361 63.8042 -4
      vertex 105 75 -4
      vertex 87 63.4641 -4
    endloop
  endfacet
  facet normal 0 0 -1
    outer loop
      vertex 85.4181 63.9781 -4
      vertex 105 75 -4
      vertex 86.2361 63.8042 -4
    endloop
  endfacet
  facet normal 0 0 -1
    outer loop
      vertex 84.5819 63.9781 -4
      vertex 105 75 -4
      vertex 85.4181 63.9781 -4
    endloop
  endfacet
  facet normal 0 0 -1
    outer loop
      vertex 83.7639 63.8042 -4
      vertex 105 75 -4
      vertex 84.5819 63.9781 -4
    endloop
  endfacet
  facet normal 0 0 -1
    outer loop
      vertex 83 63.4641 -4
      vertex 105 75 -4
      vertex 83.7639 63.8042 -4
    endloop
  endfacet
  facet normal 0 0 -1
    outer loop
      vertex -8 -61.5359 -4
      vertex 82.3235 57.0274 -4
      vertex -7.32348 -62.0274 -4
    endloop
  endfacet
  facet normal -0 0 -1
    outer loop
      vertex 82.3235 57.0274 -4
      vertex -8 -61.5359 -4
      vertex 81.7639 57.6489 -4
    endloop
  endfacet
  facet normal 0 0 -1
    outer loop
      vertex -8.76393 -61.1958 -4
      vertex 81.7639 57.6489 -4
      vertex -8 -61.5359 -4
    endloop
  endfacet
  facet normal -0 0 -1
    outer loop
      vertex 81.7639 57.6489 -4
      vertex -8.76393 -61.1958 -4
      vertex 81.3458 58.3731 -4
    endloop
  endfacet
  facet normal 0 0 -1
    outer loop
      vertex -9.58189 -61.0219 -4
      vertex 81.3458 58.3731 -4
      vertex -8.76393 -61.1958 -4
    endloop
  endfacet
  facet normal 0 0 -1
    outer loop
      vertex -81 60 -4
      vertex 81.3458 58.3731 -4
      vertex -9.58189 -61.0219 -4
    endloop
  endfacet
  facet normal 0 0 -1
    outer loop
      vertex 81.3458 58.3731 -4
      vertex -81 60 -4
      vertex 81.0874 59.1684 -4
    endloop
  endfacet
  facet normal 0 0 -1
    outer loop
      vertex 81.0874 59.1684 -4
      vertex -81 60 -4
      vertex 81 60 -4
    endloop
  endfacet
  facet normal 0 0 -1
    outer loop
      vertex 81 60 -4
      vertex -81 60 -4
      vertex 81.0874 60.8316 -4
    endloop
  endfacet
  facet normal 0 0 -1
    outer loop
      vertex -81.0874 60.8316 -4
      vertex 81.0874 60.8316 -4
      vertex -81 60 -4
    endloop
  endfacet
  facet normal 0 0 -1
    outer loop
      vertex -81 60 -4
      vertex -9.58189 -61.0219 -4
      vertex -10.4181 -61.0219 -4
    endloop
  endfacet
  facet normal 0 0 -1
    outer loop
      vertex -81 60 -4
      vertex -10.4181 -61.0219 -4
      vertex -11.2361 -61.1958 -4
    endloop
  endfacet
  facet normal 0 0 -1
    outer loop
      vertex -81 60 -4
      vertex -11.2361 -61.1958 -4
      vertex -12 -61.5359 -4
    endloop
  endfacet
  facet normal 0 0 -1
    outer loop
      vertex -81 60 -4
      vertex -12 -61.5359 -4
      vertex -12.6765 -62.0274 -4
    endloop
  endfacet
  facet normal 0 0 -1
    outer loop
      vertex -81 60 -4
      vertex -12.6765 -62.0274 -4
      vertex -13.2361 -62.6489 -4
    endloop
  endfacet
  facet normal 0 0 -1
    outer loop
      vertex -81 60 -4
      vertex -13.9126 -64.1684 -4
      vertex -14 -65 -4
    endloop
  endfacet
  facet normal 0 0 -1
    outer loop
      vertex -81 60 -4
      vertex -13.6542 -63.3731 -4
      vertex -13.9126 -64.1684 -4
    endloop
  endfacet
  facet normal 0 0 -1
    outer loop
      vertex -81 60 -4
      vertex -13.2361 -62.6489 -4
      vertex -13.6542 -63.3731 -4
    endloop
  endfacet
  facet normal 0 0 -1
    outer loop
      vertex 81.0874 60.8316 -4
      vertex -81.0874 60.8316 -4
      vertex 81.3458 61.6269 -4
    endloop
  endfacet
  facet normal 0 0 -1
    outer loop
      vertex -81.3458 61.6269 -4
      vertex 81.3458 61.6269 -4
      vertex -81.0874 60.8316 -4
    endloop
  endfacet
  facet normal 0 0 -1
    outer loop
      vertex 81.3458 61.6269 -4
      vertex -81.3458 61.6269 -4
      vertex 81.7639 62.3511 -4
    endloop
  endfacet
  facet normal 0 0 -1
    outer loop
      vertex -81.7639 62.3511 -4
      vertex 81.7639 62.3511 -4
      vertex -81.3458 61.6269 -4
    endloop
  endfacet
  facet normal 0 0 -1
    outer loop
      vertex 81.7639 62.3511 -4
      vertex -81.7639 62.3511 -4
      vertex 82.3235 62.9726 -4
    endloop
  endfacet
  facet normal 0 0 -1
    outer loop
      vertex -82.3235 62.9726 -4
      vertex 82.3235 62.9726 -4
      vertex -81.7639 62.3511 -4
    endloop
  endfacet
  facet normal 0 0 -1
    outer loop
      vertex 82.3235 62.9726 -4
      vertex -82.3235 62.9726 -4
      vertex 83 63.4641 -4
    endloop
  endfacet
  facet normal 0 0 -1
    outer loop
      vertex -83 63.4641 -4
      vertex 83 63.4641 -4
      vertex -82.3235 62.9726 -4
    endloop
  endfacet
  facet normal 0 0 -1
    outer loop
      vertex 83 63.4641 -4
      vertex -83 63.4641 -4
      vertex 105 75 -4
    endloop
  endfacet
  facet normal 0 0 -1
    outer loop
      vertex -83.7639 63.8042 -4
      vertex 105 75 -4
      vertex -83 63.4641 -4
    endloop
  endfacet
  facet normal 0 0 -1
    outer loop
      vertex -105 75 -4
      vertex -83.7639 63.8042 -4
      vertex -84.5819 63.9781 -4
    endloop
  endfacet
  facet normal 0 0 -1
    outer loop
      vertex -105 75 -4
      vertex -84.5819 63.9781 -4
      vertex -85.4181 63.9781 -4
    endloop
  endfacet
  facet normal 0 0 -1
    outer loop
      vertex -83.7639 63.8042 -4
      vertex -105 75 -4
      vertex 105 75 -4
    endloop
  endfacet
  facet normal 0 0 -1
    outer loop
      vertex -86.2361 63.8042 -4
      vertex -105 75 -4
      vertex -85.4181 63.9781 -4
    endloop
  endfacet
  facet normal 0 0 -1
    outer loop
      vertex -87 63.4641 -4
      vertex -105 75 -4
      vertex -86.2361 63.8042 -4
    endloop
  endfacet
  facet normal 0 0 -1
    outer loop
      vertex -87.6765 62.9726 -4
      vertex -105 75 -4
      vertex -87 63.4641 -4
    endloop
  endfacet
  facet normal 0 0 -1
    outer loop
      vertex -88.2361 62.3511 -4
      vertex -105 75 -4
      vertex -87.6765 62.9726 -4
    endloop
  endfacet
  facet normal 0 0 -1
    outer loop
      vertex -88.6542 61.6269 -4
      vertex -105 75 -4
      vertex -88.2361 62.3511 -4
    endloop
  endfacet
  facet normal 0 0 -1
    outer loop
      vertex -88.9126 60.8316 -4
      vertex -105 75 -4
      vertex -88.6542 61.6269 -4
    endloop
  endfacet
  facet normal 0 0 -1
    outer loop
      vertex -89 60 -4
      vertex -105 75 -4
      vertex -88.9126 60.8316 -4
    endloop
  endfacet
  facet normal 0 0 -1
    outer loop
      vertex -88.9126 59.1684 -4
      vertex -105 75 -4
      vertex -89 60 -4
    endloop
  endfacet
  facet normal -1 0 0
    outer loop
      vertex -105 -95 -4
      vertex -105 75 4
      vertex -105 75 -4
    endloop
  endfacet
  facet normal -1 -0 0
    outer loop
      vertex -105 75 4
      vertex -105 -95 -4
      vertex -105 -95 4
    endloop
  endfacet
  facet normal 0 1 -0
    outer loop
      vertex 105 75 -4
      vertex -105 75 4
      vertex 105 75 4
    endloop
  endfacet
  facet normal 0 1 0
    outer loop
      vertex -105 75 4
      vertex 105 75 -4
      vertex -105 75 -4
    endloop
  endfacet
  facet normal 0 -1 0
    outer loop
      vertex -105 -95 -4
      vertex 105 -95 4
      vertex -105 -95 4
    endloop
  endfacet
  facet normal 0 -1 -0
    outer loop
      vertex 105 -95 4
      vertex -105 -95 -4
      vertex 105 -95 -4
    endloop
  endfacet
  facet normal -0.406713 -0.913556 0
    outer loop
      vertex -8.76393 -61.1958 -4
      vertex -8 -61.5359 2
      vertex -8.76393 -61.1958 2
    endloop
  endfacet
  facet normal -0.406713 -0.913556 -0
    outer loop
      vertex -8 -61.5359 2
      vertex -8.76393 -61.1958 -4
      vertex -8 -61.5359 -4
    endloop
  endfacet
  facet normal -0.587769 -0.809029 0
    outer loop
      vertex -8 -61.5359 -4
      vertex -7.32348 -62.0274 2
      vertex -8 -61.5359 2
    endloop
  endfacet
  facet normal -0.587769 -0.809029 -0
    outer loop
      vertex -7.32348 -62.0274 2
      vertex -8 -61.5359 -4
      vertex -7.32348 -62.0274 -4
    endloop
  endfacet
  facet normal 0.994522 0.104523 0
    outer loop
      vertex -13.9126 -65.8316 2
      vertex -14 -65 -4
      vertex -14 -65 2
    endloop
  endfacet
  facet normal 0.994522 0.104523 0
    outer loop
      vertex -14 -65 -4
      vertex -13.9126 -65.8316 2
      vertex -13.9126 -65.8316 -4
    endloop
  endfacet
  facet normal -0.994521 0.104535 0
    outer loop
      vertex -6.08741 -65.8316 -4
      vertex -6 -65 2
      vertex -6 -65 -4
    endloop
  endfacet
  facet normal -0.994521 0.104535 0
    outer loop
      vertex -6 -65 2
      vertex -6.08741 -65.8316 -4
      vertex -6.08741 -65.8316 2
    endloop
  endfacet
  facet normal 0.95106 -0.309008 0
    outer loop
      vertex -13.9126 -64.1684 2
      vertex -13.6542 -63.3731 -4
      vertex -13.6542 -63.3731 2
    endloop
  endfacet
  facet normal 0.95106 -0.309008 0
    outer loop
      vertex -13.6542 -63.3731 -4
      vertex -13.9126 -64.1684 2
      vertex -13.9126 -64.1684 -4
    endloop
  endfacet
  facet normal -0.866029 -0.499994 0
    outer loop
      vertex -6.34582 -63.3731 -4
      vertex -6.76393 -62.6489 2
      vertex -6.76393 -62.6489 -4
    endloop
  endfacet
  facet normal -0.866029 -0.499994 0
    outer loop
      vertex -6.76393 -62.6489 2
      vertex -6.34582 -63.3731 -4
      vertex -6.34582 -63.3731 2
    endloop
  endfacet
  facet normal 0.743145 0.66913 0
    outer loop
      vertex -12.6765 -67.9726 2
      vertex -13.2361 -67.3511 -4
      vertex -13.2361 -67.3511 2
    endloop
  endfacet
  facet normal 0.743145 0.66913 0
    outer loop
      vertex -13.2361 -67.3511 -4
      vertex -12.6765 -67.9726 2
      vertex -12.6765 -67.9726 -4
    endloop
  endfacet
  facet normal 0.95106 0.309008 0
    outer loop
      vertex -13.6542 -66.6269 2
      vertex -13.9126 -65.8316 -4
      vertex -13.9126 -65.8316 2
    endloop
  endfacet
  facet normal 0.95106 0.309008 0
    outer loop
      vertex -13.9126 -65.8316 -4
      vertex -13.6542 -66.6269 2
      vertex -13.6542 -66.6269 -4
    endloop
  endfacet
  facet normal -0.587769 0.809029 0
    outer loop
      vertex -7.32348 -67.9726 -4
      vertex -8 -68.4641 2
      vertex -7.32348 -67.9726 2
    endloop
  endfacet
  facet normal -0.587769 0.809029 0
    outer loop
      vertex -8 -68.4641 2
      vertex -7.32348 -67.9726 -4
      vertex -8 -68.4641 -4
    endloop
  endfacet
  facet normal -0.743175 -0.669097 0
    outer loop
      vertex -6.76393 -62.6489 -4
      vertex -7.32348 -62.0274 2
      vertex -7.32348 -62.0274 -4
    endloop
  endfacet
  facet normal -0.743175 -0.669097 0
    outer loop
      vertex -7.32348 -62.0274 2
      vertex -6.76393 -62.6489 -4
      vertex -6.76393 -62.6489 2
    endloop
  endfacet
  facet normal -0.994521 -0.104535 0
    outer loop
      vertex -6 -65 -4
      vertex -6.08741 -64.1684 2
      vertex -6.08741 -64.1684 -4
    endloop
  endfacet
  facet normal -0.994521 -0.104535 0
    outer loop
      vertex -6.08741 -64.1684 2
      vertex -6 -65 -4
      vertex -6 -65 2
    endloop
  endfacet
  facet normal 0.406726 0.91355 -0
    outer loop
      vertex -11.2361 -68.8042 -4
      vertex -12 -68.4641 2
      vertex -11.2361 -68.8042 2
    endloop
  endfacet
  facet normal 0.406726 0.91355 0
    outer loop
      vertex -12 -68.4641 2
      vertex -11.2361 -68.8042 -4
      vertex -12 -68.4641 -4
    endloop
  endfacet
  facet normal 0.994522 -0.104523 0
    outer loop
      vertex -14 -65 2
      vertex -13.9126 -64.1684 -4
      vertex -13.9126 -64.1684 2
    endloop
  endfacet
  facet normal 0.994522 -0.104523 0
    outer loop
      vertex -13.9126 -64.1684 -4
      vertex -14 -65 2
      vertex -14 -65 -4
    endloop
  endfacet
  facet normal 0.587781 -0.80902 0
    outer loop
      vertex -12.6765 -62.0274 -4
      vertex -12 -61.5359 2
      vertex -12.6765 -62.0274 2
    endloop
  endfacet
  facet normal 0.587781 -0.80902 0
    outer loop
      vertex -12 -61.5359 2
      vertex -12.6765 -62.0274 -4
      vertex -12 -61.5359 -4
    endloop
  endfacet
  facet normal -0.951056 -0.309018 0
    outer loop
      vertex -6.08741 -64.1684 -4
      vertex -6.34582 -63.3731 2
      vertex -6.34582 -63.3731 -4
    endloop
  endfacet
  facet normal -0.951056 -0.309018 0
    outer loop
      vertex -6.34582 -63.3731 2
      vertex -6.08741 -64.1684 -4
      vertex -6.08741 -64.1684 2
    endloop
  endfacet
  facet normal 0.866034 -0.499985 0
    outer loop
      vertex -13.6542 -63.3731 2
      vertex -13.2361 -62.6489 -4
      vertex -13.2361 -62.6489 2
    endloop
  endfacet
  facet normal 0.866034 -0.499985 0
    outer loop
      vertex -13.2361 -62.6489 -4
      vertex -13.6542 -63.3731 2
      vertex -13.6542 -63.3731 -4
    endloop
  endfacet
  facet normal 0.207945 -0.978141 0
    outer loop
      vertex -11.2361 -61.1958 -4
      vertex -10.4181 -61.0219 2
      vertex -11.2361 -61.1958 2
    endloop
  endfacet
  facet normal 0.207945 -0.978141 0
    outer loop
      vertex -10.4181 -61.0219 2
      vertex -11.2361 -61.1958 -4
      vertex -10.4181 -61.0219 -4
    endloop
  endfacet
  facet normal 0.406726 -0.91355 0
    outer loop
      vertex -12 -61.5359 -4
      vertex -11.2361 -61.1958 2
      vertex -12 -61.5359 2
    endloop
  endfacet
  facet normal 0.406726 -0.91355 0
    outer loop
      vertex -11.2361 -61.1958 2
      vertex -12 -61.5359 -4
      vertex -11.2361 -61.1958 -4
    endloop
  endfacet
  facet normal -0.866029 0.499994 0
    outer loop
      vertex -6.76393 -67.3511 -4
      vertex -6.34582 -66.6269 2
      vertex -6.34582 -66.6269 -4
    endloop
  endfacet
  facet normal -0.866029 0.499994 0
    outer loop
      vertex -6.34582 -66.6269 2
      vertex -6.76393 -67.3511 -4
      vertex -6.76393 -67.3511 2
    endloop
  endfacet
  facet normal -0.207954 0.978139 0
    outer loop
      vertex -8.76393 -68.8042 -4
      vertex -9.58189 -68.9781 2
      vertex -8.76393 -68.8042 2
    endloop
  endfacet
  facet normal -0.207954 0.978139 0
    outer loop
      vertex -9.58189 -68.9781 2
      vertex -8.76393 -68.8042 -4
      vertex -9.58189 -68.9781 -4
    endloop
  endfacet
  facet normal 0.866034 0.499985 0
    outer loop
      vertex -13.2361 -67.3511 2
      vertex -13.6542 -66.6269 -4
      vertex -13.6542 -66.6269 2
    endloop
  endfacet
  facet normal 0.866034 0.499985 0
    outer loop
      vertex -13.6542 -66.6269 -4
      vertex -13.2361 -67.3511 2
      vertex -13.2361 -67.3511 -4
    endloop
  endfacet
  facet normal -0.207954 -0.978139 0
    outer loop
      vertex -9.58189 -61.0219 -4
      vertex -8.76393 -61.1958 2
      vertex -9.58189 -61.0219 2
    endloop
  endfacet
  facet normal -0.207954 -0.978139 -0
    outer loop
      vertex -8.76393 -61.1958 2
      vertex -9.58189 -61.0219 -4
      vertex -8.76393 -61.1958 -4
    endloop
  endfacet
  facet normal -0.743175 0.669097 0
    outer loop
      vertex -7.32348 -67.9726 -4
      vertex -6.76393 -67.3511 2
      vertex -6.76393 -67.3511 -4
    endloop
  endfacet
  facet normal -0.743175 0.669097 0
    outer loop
      vertex -6.76393 -67.3511 2
      vertex -7.32348 -67.9726 -4
      vertex -7.32348 -67.9726 2
    endloop
  endfacet
  facet normal 0.743145 -0.66913 0
    outer loop
      vertex -13.2361 -62.6489 2
      vertex -12.6765 -62.0274 -4
      vertex -12.6765 -62.0274 2
    endloop
  endfacet
  facet normal 0.743145 -0.66913 0
    outer loop
      vertex -12.6765 -62.0274 -4
      vertex -13.2361 -62.6489 2
      vertex -13.2361 -62.6489 -4
    endloop
  endfacet
  facet normal -0.951056 0.309018 0
    outer loop
      vertex -6.34582 -66.6269 -4
      vertex -6.08741 -65.8316 2
      vertex -6.08741 -65.8316 -4
    endloop
  endfacet
  facet normal -0.951056 0.309018 0
    outer loop
      vertex -6.08741 -65.8316 2
      vertex -6.34582 -66.6269 -4
      vertex -6.34582 -66.6269 2
    endloop
  endfacet
  facet normal -0.406713 0.913556 0
    outer loop
      vertex -8 -68.4641 -4
      vertex -8.76393 -68.8042 2
      vertex -8 -68.4641 2
    endloop
  endfacet
  facet normal -0.406713 0.913556 0
    outer loop
      vertex -8.76393 -68.8042 2
      vertex -8 -68.4641 -4
      vertex -8.76393 -68.8042 -4
    endloop
  endfacet
  facet normal 0.587781 0.80902 -0
    outer loop
      vertex -12 -68.4641 -4
      vertex -12.6765 -67.9726 2
      vertex -12 -68.4641 2
    endloop
  endfacet
  facet normal 0.587781 0.80902 0
    outer loop
      vertex -12.6765 -67.9726 2
      vertex -12 -68.4641 -4
      vertex -12.6765 -67.9726 -4
    endloop
  endfacet
  facet normal 0 1 -0
    outer loop
      vertex -9.58189 -68.9781 -4
      vertex -10.4181 -68.9781 2
      vertex -9.58189 -68.9781 2
    endloop
  endfacet
  facet normal 0 1 0
    outer loop
      vertex -10.4181 -68.9781 2
      vertex -9.58189 -68.9781 -4
      vertex -10.4181 -68.9781 -4
    endloop
  endfacet
  facet normal 0 -1 0
    outer loop
      vertex -10.4181 -61.0219 -4
      vertex -9.58189 -61.0219 2
      vertex -10.4181 -61.0219 2
    endloop
  endfacet
  facet normal 0 -1 -0
    outer loop
      vertex -9.58189 -61.0219 2
      vertex -10.4181 -61.0219 -4
      vertex -9.58189 -61.0219 -4
    endloop
  endfacet
  facet normal 0.207945 0.978141 -0
    outer loop
      vertex -10.4181 -68.9781 -4
      vertex -11.2361 -68.8042 2
      vertex -10.4181 -68.9781 2
    endloop
  endfacet
  facet normal 0.207945 0.978141 0
    outer loop
      vertex -11.2361 -68.8042 2
      vertex -10.4181 -68.9781 -4
      vertex -11.2361 -68.8042 -4
    endloop
  endfacet
  facet normal 0 0 -1
    outer loop
      vertex -6.08741 -65.8316 2
      vertex -6.08741 -64.1684 2
      vertex -6 -65 2
    endloop
  endfacet
  facet normal 0 0 -1
    outer loop
      vertex -6.34582 -66.6269 2
      vertex -6.08741 -64.1684 2
      vertex -6.08741 -65.8316 2
    endloop
  endfacet
  facet normal 0 0 -1
    outer loop
      vertex -6.34582 -66.6269 2
      vertex -6.34582 -63.3731 2
      vertex -6.08741 -64.1684 2
    endloop
  endfacet
  facet normal 0 0 -1
    outer loop
      vertex -6.76393 -67.3511 2
      vertex -6.34582 -63.3731 2
      vertex -6.34582 -66.6269 2
    endloop
  endfacet
  facet normal 0 0 -1
    outer loop
      vertex -6.76393 -67.3511 2
      vertex -6.76393 -62.6489 2
      vertex -6.34582 -63.3731 2
    endloop
  endfacet
  facet normal 0 0 -1
    outer loop
      vertex -7.32348 -67.9726 2
      vertex -6.76393 -62.6489 2
      vertex -6.76393 -67.3511 2
    endloop
  endfacet
  facet normal 0 0 -1
    outer loop
      vertex -7.32348 -67.9726 2
      vertex -7.32348 -62.0274 2
      vertex -6.76393 -62.6489 2
    endloop
  endfacet
  facet normal 0 0 -1
    outer loop
      vertex -8 -68.4641 2
      vertex -7.32348 -62.0274 2
      vertex -7.32348 -67.9726 2
    endloop
  endfacet
  facet normal 0 0 -1
    outer loop
      vertex -8 -68.4641 2
      vertex -8 -61.5359 2
      vertex -7.32348 -62.0274 2
    endloop
  endfacet
  facet normal 0 0 -1
    outer loop
      vertex -8.76393 -68.8042 2
      vertex -8 -61.5359 2
      vertex -8 -68.4641 2
    endloop
  endfacet
  facet normal 0 0 -1
    outer loop
      vertex -8.76393 -68.8042 2
      vertex -8.76393 -61.1958 2
      vertex -8 -61.5359 2
    endloop
  endfacet
  facet normal 0 0 -1
    outer loop
      vertex -9.58189 -68.9781 2
      vertex -8.76393 -61.1958 2
      vertex -8.76393 -68.8042 2
    endloop
  endfacet
  facet normal 0 0 -1
    outer loop
      vertex -9.58189 -68.9781 2
      vertex -9.58189 -61.0219 2
      vertex -8.76393 -61.1958 2
    endloop
  endfacet
  facet normal 0 0 -1
    outer loop
      vertex -10.4181 -68.9781 2
      vertex -9.58189 -61.0219 2
      vertex -9.58189 -68.9781 2
    endloop
  endfacet
  facet normal 0 0 -1
    outer loop
      vertex -10.4181 -68.9781 2
      vertex -10.4181 -61.0219 2
      vertex -9.58189 -61.0219 2
    endloop
  endfacet
  facet normal 0 0 -1
    outer loop
      vertex -11.2361 -68.8042 2
      vertex -10.4181 -61.0219 2
      vertex -10.4181 -68.9781 2
    endloop
  endfacet
  facet normal 0 0 -1
    outer loop
      vertex -11.2361 -68.8042 2
      vertex -11.2361 -61.1958 2
      vertex -10.4181 -61.0219 2
    endloop
  endfacet
  facet normal 0 0 -1
    outer loop
      vertex -12 -68.4641 2
      vertex -11.2361 -61.1958 2
      vertex -11.2361 -68.8042 2
    endloop
  endfacet
  facet normal 0 0 -1
    outer loop
      vertex -12 -68.4641 2
      vertex -12 -61.5359 2
      vertex -11.2361 -61.1958 2
    endloop
  endfacet
  facet normal 0 0 -1
    outer loop
      vertex -12.6765 -67.9726 2
      vertex -12 -61.5359 2
      vertex -12 -68.4641 2
    endloop
  endfacet
  facet normal 0 0 -1
    outer loop
      vertex -12.6765 -67.9726 2
      vertex -12.6765 -62.0274 2
      vertex -12 -61.5359 2
    endloop
  endfacet
  facet normal 0 0 -1
    outer loop
      vertex -13.2361 -67.3511 2
      vertex -12.6765 -62.0274 2
      vertex -12.6765 -67.9726 2
    endloop
  endfacet
  facet normal 0 0 -1
    outer loop
      vertex -13.2361 -67.3511 2
      vertex -13.2361 -62.6489 2
      vertex -12.6765 -62.0274 2
    endloop
  endfacet
  facet normal 0 0 -1
    outer loop
      vertex -13.6542 -66.6269 2
      vertex -13.2361 -62.6489 2
      vertex -13.2361 -67.3511 2
    endloop
  endfacet
  facet normal 0 0 -1
    outer loop
      vertex -13.6542 -66.6269 2
      vertex -13.6542 -63.3731 2
      vertex -13.2361 -62.6489 2
    endloop
  endfacet
  facet normal 0 0 -1
    outer loop
      vertex -13.9126 -65.8316 2
      vertex -13.6542 -63.3731 2
      vertex -13.6542 -66.6269 2
    endloop
  endfacet
  facet normal 0 0 -1
    outer loop
      vertex -13.9126 -65.8316 2
      vertex -13.9126 -64.1684 2
      vertex -13.6542 -63.3731 2
    endloop
  endfacet
  facet normal 0 -0 -1
    outer loop
      vertex -13.9126 -64.1684 2
      vertex -13.9126 -65.8316 2
      vertex -14 -65 2
    endloop
  endfacet
  facet normal 0.95106 -0.309008 0
    outer loop
      vertex -88.9126 60.8316 2
      vertex -88.6542 61.6269 -4
      vertex -88.6542 61.6269 2
    endloop
  endfacet
  facet normal 0.95106 -0.309008 0
    outer loop
      vertex -88.6542 61.6269 -4
      vertex -88.9126 60.8316 2
      vertex -88.9126 60.8316 -4
    endloop
  endfacet
  facet normal -0.95106 -0.309008 0
    outer loop
      vertex -81.0874 60.8316 -4
      vertex -81.3458 61.6269 2
      vertex -81.3458 61.6269 -4
    endloop
  endfacet
  facet normal -0.95106 -0.309008 0
    outer loop
      vertex -81.3458 61.6269 2
      vertex -81.0874 60.8316 -4
      vertex -81.0874 60.8316 2
    endloop
  endfacet
  facet normal -0.994522 -0.104523 0
    outer loop
      vertex -81 60 -4
      vertex -81.0874 60.8316 2
      vertex -81.0874 60.8316 -4
    endloop
  endfacet
  facet normal -0.994522 -0.104523 0
    outer loop
      vertex -81.0874 60.8316 2
      vertex -81 60 -4
      vertex -81 60 2
    endloop
  endfacet
  facet normal -0.866034 -0.499985 0
    outer loop
      vertex -81.3458 61.6269 -4
      vertex -81.7639 62.3511 2
      vertex -81.7639 62.3511 -4
    endloop
  endfacet
  facet normal -0.866034 -0.499985 0
    outer loop
      vertex -81.7639 62.3511 2
      vertex -81.3458 61.6269 -4
      vertex -81.3458 61.6269 2
    endloop
  endfacet
  facet normal 0.994522 -0.104523 0
    outer loop
      vertex -89 60 2
      vertex -88.9126 60.8316 -4
      vertex -88.9126 60.8316 2
    endloop
  endfacet
  facet normal 0.994522 -0.104523 0
    outer loop
      vertex -88.9126 60.8316 -4
      vertex -89 60 2
      vertex -89 60 -4
    endloop
  endfacet
  facet normal 0.587781 0.80902 -0
    outer loop
      vertex -87 56.5359 -4
      vertex -87.6765 57.0274 2
      vertex -87 56.5359 2
    endloop
  endfacet
  facet normal 0.587781 0.80902 0
    outer loop
      vertex -87.6765 57.0274 2
      vertex -87 56.5359 -4
      vertex -87.6765 57.0274 -4
    endloop
  endfacet
  facet normal 0.406726 0.91355 -0
    outer loop
      vertex -86.2361 56.1958 -4
      vertex -87 56.5359 2
      vertex -86.2361 56.1958 2
    endloop
  endfacet
  facet normal 0.406726 0.91355 0
    outer loop
      vertex -87 56.5359 2
      vertex -86.2361 56.1958 -4
      vertex -87 56.5359 -4
    endloop
  endfacet
  facet normal -0.743145 -0.66913 0
    outer loop
      vertex -81.7639 62.3511 -4
      vertex -82.3235 62.9726 2
      vertex -82.3235 62.9726 -4
    endloop
  endfacet
  facet normal -0.743145 -0.66913 0
    outer loop
      vertex -82.3235 62.9726 2
      vertex -81.7639 62.3511 -4
      vertex -81.7639 62.3511 2
    endloop
  endfacet
  facet normal -0.207945 0.978141 0
    outer loop
      vertex -83.7639 56.1958 -4
      vertex -84.5819 56.0219 2
      vertex -83.7639 56.1958 2
    endloop
  endfacet
  facet normal -0.207945 0.978141 0
    outer loop
      vertex -84.5819 56.0219 2
      vertex -83.7639 56.1958 -4
      vertex -84.5819 56.0219 -4
    endloop
  endfacet
  facet normal -0.406726 -0.91355 0
    outer loop
      vertex -83.7639 63.8042 -4
      vertex -83 63.4641 2
      vertex -83.7639 63.8042 2
    endloop
  endfacet
  facet normal -0.406726 -0.91355 -0
    outer loop
      vertex -83 63.4641 2
      vertex -83.7639 63.8042 -4
      vertex -83 63.4641 -4
    endloop
  endfacet
  facet normal 0 -1 0
    outer loop
      vertex -85.4181 63.9781 -4
      vertex -84.5819 63.9781 2
      vertex -85.4181 63.9781 2
    endloop
  endfacet
  facet normal 0 -1 -0
    outer loop
      vertex -84.5819 63.9781 2
      vertex -85.4181 63.9781 -4
      vertex -84.5819 63.9781 -4
    endloop
  endfacet
  facet normal -0.406726 0.91355 0
    outer loop
      vertex -83 56.5359 -4
      vertex -83.7639 56.1958 2
      vertex -83 56.5359 2
    endloop
  endfacet
  facet normal -0.406726 0.91355 0
    outer loop
      vertex -83.7639 56.1958 2
      vertex -83 56.5359 -4
      vertex -83.7639 56.1958 -4
    endloop
  endfacet
  facet normal -0.587781 0.80902 0
    outer loop
      vertex -82.3235 57.0274 -4
      vertex -83 56.5359 2
      vertex -82.3235 57.0274 2
    endloop
  endfacet
  facet normal -0.587781 0.80902 0
    outer loop
      vertex -83 56.5359 2
      vertex -82.3235 57.0274 -4
      vertex -83 56.5359 -4
    endloop
  endfacet
  facet normal 0.866034 -0.499985 0
    outer loop
      vertex -88.6542 61.6269 2
      vertex -88.2361 62.3511 -4
      vertex -88.2361 62.3511 2
    endloop
  endfacet
  facet normal 0.866034 -0.499985 0
    outer loop
      vertex -88.2361 62.3511 -4
      vertex -88.6542 61.6269 2
      vertex -88.6542 61.6269 -4
    endloop
  endfacet
  facet normal 0.743145 0.66913 0
    outer loop
      vertex -87.6765 57.0274 2
      vertex -88.2361 57.6489 -4
      vertex -88.2361 57.6489 2
    endloop
  endfacet
  facet normal 0.743145 0.66913 0
    outer loop
      vertex -88.2361 57.6489 -4
      vertex -87.6765 57.0274 2
      vertex -87.6765 57.0274 -4
    endloop
  endfacet
  facet normal -0.207945 -0.978141 0
    outer loop
      vertex -84.5819 63.9781 -4
      vertex -83.7639 63.8042 2
      vertex -84.5819 63.9781 2
    endloop
  endfacet
  facet normal -0.207945 -0.978141 -0
    outer loop
      vertex -83.7639 63.8042 2
      vertex -84.5819 63.9781 -4
      vertex -83.7639 63.8042 -4
    endloop
  endfacet
  facet normal -0.587781 -0.80902 0
    outer loop
      vertex -83 63.4641 -4
      vertex -82.3235 62.9726 2
      vertex -83 63.4641 2
    endloop
  endfacet
  facet normal -0.587781 -0.80902 -0
    outer loop
      vertex -82.3235 62.9726 2
      vertex -83 63.4641 -4
      vertex -82.3235 62.9726 -4
    endloop
  endfacet
  facet normal -0.95106 0.309008 0
    outer loop
      vertex -81.3458 58.3731 -4
      vertex -81.0874 59.1684 2
      vertex -81.0874 59.1684 -4
    endloop
  endfacet
  facet normal -0.95106 0.309008 0
    outer loop
      vertex -81.0874 59.1684 2
      vertex -81.3458 58.3731 -4
      vertex -81.3458 58.3731 2
    endloop
  endfacet
  facet normal -0.994522 0.104523 0
    outer loop
      vertex -81.0874 59.1684 -4
      vertex -81 60 2
      vertex -81 60 -4
    endloop
  endfacet
  facet normal -0.994522 0.104523 0
    outer loop
      vertex -81 60 2
      vertex -81.0874 59.1684 -4
      vertex -81.0874 59.1684 2
    endloop
  endfacet
  facet normal 0.743145 -0.66913 0
    outer loop
      vertex -88.2361 62.3511 2
      vertex -87.6765 62.9726 -4
      vertex -87.6765 62.9726 2
    endloop
  endfacet
  facet normal 0.743145 -0.66913 0
    outer loop
      vertex -87.6765 62.9726 -4
      vertex -88.2361 62.3511 2
      vertex -88.2361 62.3511 -4
    endloop
  endfacet
  facet normal 0.587781 -0.80902 0
    outer loop
      vertex -87.6765 62.9726 -4
      vertex -87 63.4641 2
      vertex -87.6765 62.9726 2
    endloop
  endfacet
  facet normal 0.587781 -0.80902 0
    outer loop
      vertex -87 63.4641 2
      vertex -87.6765 62.9726 -4
      vertex -87 63.4641 -4
    endloop
  endfacet
  facet normal 0.406726 -0.91355 0
    outer loop
      vertex -87 63.4641 -4
      vertex -86.2361 63.8042 2
      vertex -87 63.4641 2
    endloop
  endfacet
  facet normal 0.406726 -0.91355 0
    outer loop
      vertex -86.2361 63.8042 2
      vertex -87 63.4641 -4
      vertex -86.2361 63.8042 -4
    endloop
  endfacet
  facet normal -0.866034 0.499985 0
    outer loop
      vertex -81.7639 57.6489 -4
      vertex -81.3458 58.3731 2
      vertex -81.3458 58.3731 -4
    endloop
  endfacet
  facet normal -0.866034 0.499985 0
    outer loop
      vertex -81.3458 58.3731 2
      vertex -81.7639 57.6489 -4
      vertex -81.7639 57.6489 2
    endloop
  endfacet
  facet normal -0.743145 0.66913 0
    outer loop
      vertex -82.3235 57.0274 -4
      vertex -81.7639 57.6489 2
      vertex -81.7639 57.6489 -4
    endloop
  endfacet
  facet normal -0.743145 0.66913 0
    outer loop
      vertex -81.7639 57.6489 2
      vertex -82.3235 57.0274 -4
      vertex -82.3235 57.0274 2
    endloop
  endfacet
  facet normal 0.95106 0.309008 0
    outer loop
      vertex -88.6542 58.3731 2
      vertex -88.9126 59.1684 -4
      vertex -88.9126 59.1684 2
    endloop
  endfacet
  facet normal 0.95106 0.309008 0
    outer loop
      vertex -88.9126 59.1684 -4
      vertex -88.6542 58.3731 2
      vertex -88.6542 58.3731 -4
    endloop
  endfacet
  facet normal 0.866034 0.499985 0
    outer loop
      vertex -88.2361 57.6489 2
      vertex -88.6542 58.3731 -4
      vertex -88.6542 58.3731 2
    endloop
  endfacet
  facet normal 0.866034 0.499985 0
    outer loop
      vertex -88.6542 58.3731 -4
      vertex -88.2361 57.6489 2
      vertex -88.2361 57.6489 -4
    endloop
  endfacet
  facet normal 0.207945 -0.978141 0
    outer loop
      vertex -86.2361 63.8042 -4
      vertex -85.4181 63.9781 2
      vertex -86.2361 63.8042 2
    endloop
  endfacet
  facet normal 0.207945 -0.978141 0
    outer loop
      vertex -85.4181 63.9781 2
      vertex -86.2361 63.8042 -4
      vertex -85.4181 63.9781 -4
    endloop
  endfacet
  facet normal 0.994522 0.104523 0
    outer loop
      vertex -88.9126 59.1684 2
      vertex -89 60 -4
      vertex -89 60 2
    endloop
  endfacet
  facet normal 0.994522 0.104523 0
    outer loop
      vertex -89 60 -4
      vertex -88.9126 59.1684 2
      vertex -88.9126 59.1684 -4
    endloop
  endfacet
  facet normal 0 0 -1
    outer loop
      vertex -81.0874 59.1684 2
      vertex -81.0874 60.8316 2
      vertex -81 60 2
    endloop
  endfacet
  facet normal 0 0 -1
    outer loop
      vertex -81.3458 58.3731 2
      vertex -81.0874 60.8316 2
      vertex -81.0874 59.1684 2
    endloop
  endfacet
  facet normal 0 0 -1
    outer loop
      vertex -81.3458 58.3731 2
      vertex -81.3458 61.6269 2
      vertex -81.0874 60.8316 2
    endloop
  endfacet
  facet normal 0 0 -1
    outer loop
      vertex -81.7639 57.6489 2
      vertex -81.3458 61.6269 2
      vertex -81.3458 58.3731 2
    endloop
  endfacet
  facet normal 0 0 -1
    outer loop
      vertex -81.7639 57.6489 2
      vertex -81.7639 62.3511 2
      vertex -81.3458 61.6269 2
    endloop
  endfacet
  facet normal 0 0 -1
    outer loop
      vertex -82.3235 57.0274 2
      vertex -81.7639 62.3511 2
      vertex -81.7639 57.6489 2
    endloop
  endfacet
  facet normal 0 0 -1
    outer loop
      vertex -82.3235 57.0274 2
      vertex -82.3235 62.9726 2
      vertex -81.7639 62.3511 2
    endloop
  endfacet
  facet normal 0 0 -1
    outer loop
      vertex -83 56.5359 2
      vertex -82.3235 62.9726 2
      vertex -82.3235 57.0274 2
    endloop
  endfacet
  facet normal 0 0 -1
    outer loop
      vertex -83 56.5359 2
      vertex -83 63.4641 2
      vertex -82.3235 62.9726 2
    endloop
  endfacet
  facet normal 0 0 -1
    outer loop
      vertex -83.7639 56.1958 2
      vertex -83 63.4641 2
      vertex -83 56.5359 2
    endloop
  endfacet
  facet normal 0 0 -1
    outer loop
      vertex -83.7639 56.1958 2
      vertex -83.7639 63.8042 2
      vertex -83 63.4641 2
    endloop
  endfacet
  facet normal 0 0 -1
    outer loop
      vertex -84.5819 56.0219 2
      vertex -83.7639 63.8042 2
      vertex -83.7639 56.1958 2
    endloop
  endfacet
  facet normal 0 0 -1
    outer loop
      vertex -84.5819 56.0219 2
      vertex -84.5819 63.9781 2
      vertex -83.7639 63.8042 2
    endloop
  endfacet
  facet normal 0 0 -1
    outer loop
      vertex -85.4181 56.0219 2
      vertex -84.5819 63.9781 2
      vertex -84.5819 56.0219 2
    endloop
  endfacet
  facet normal 0 0 -1
    outer loop
      vertex -85.4181 56.0219 2
      vertex -85.4181 63.9781 2
      vertex -84.5819 63.9781 2
    endloop
  endfacet
  facet normal 0 0 -1
    outer loop
      vertex -86.2361 56.1958 2
      vertex -85.4181 63.9781 2
      vertex -85.4181 56.0219 2
    endloop
  endfacet
  facet normal 0 0 -1
    outer loop
      vertex -86.2361 56.1958 2
      vertex -86.2361 63.8042 2
      vertex -85.4181 63.9781 2
    endloop
  endfacet
  facet normal 0 0 -1
    outer loop
      vertex -87 56.5359 2
      vertex -86.2361 63.8042 2
      vertex -86.2361 56.1958 2
    endloop
  endfacet
  facet normal 0 0 -1
    outer loop
      vertex -87 56.5359 2
      vertex -87 63.4641 2
      vertex -86.2361 63.8042 2
    endloop
  endfacet
  facet normal 0 0 -1
    outer loop
      vertex -87.6765 57.0274 2
      vertex -87 63.4641 2
      vertex -87 56.5359 2
    endloop
  endfacet
  facet normal 0 0 -1
    outer loop
      vertex -87.6765 57.0274 2
      vertex -87.6765 62.9726 2
      vertex -87 63.4641 2
    endloop
  endfacet
  facet normal 0 0 -1
    outer loop
      vertex -88.2361 57.6489 2
      vertex -87.6765 62.9726 2
      vertex -87.6765 57.0274 2
    endloop
  endfacet
  facet normal 0 0 -1
    outer loop
      vertex -88.2361 57.6489 2
      vertex -88.2361 62.3511 2
      vertex -87.6765 62.9726 2
    endloop
  endfacet
  facet normal 0 0 -1
    outer loop
      vertex -88.6542 58.3731 2
      vertex -88.2361 62.3511 2
      vertex -88.2361 57.6489 2
    endloop
  endfacet
  facet normal 0 0 -1
    outer loop
      vertex -88.6542 58.3731 2
      vertex -88.6542 61.6269 2
      vertex -88.2361 62.3511 2
    endloop
  endfacet
  facet normal 0 0 -1
    outer loop
      vertex -88.9126 59.1684 2
      vertex -88.6542 61.6269 2
      vertex -88.6542 58.3731 2
    endloop
  endfacet
  facet normal 0 0 -1
    outer loop
      vertex -88.9126 59.1684 2
      vertex -88.9126 60.8316 2
      vertex -88.6542 61.6269 2
    endloop
  endfacet
  facet normal 0 -0 -1
    outer loop
      vertex -88.9126 60.8316 2
      vertex -88.9126 59.1684 2
      vertex -89 60 2
    endloop
  endfacet
  facet normal 0 1 -0
    outer loop
      vertex -84.5819 56.0219 -4
      vertex -85.4181 56.0219 2
      vertex -84.5819 56.0219 2
    endloop
  endfacet
  facet normal 0 1 0
    outer loop
      vertex -85.4181 56.0219 2
      vertex -84.5819 56.0219 -4
      vertex -85.4181 56.0219 -4
    endloop
  endfacet
  facet normal 0.207945 0.978141 -0
    outer loop
      vertex -85.4181 56.0219 -4
      vertex -86.2361 56.1958 2
      vertex -85.4181 56.0219 2
    endloop
  endfacet
  facet normal 0.207945 0.978141 0
    outer loop
      vertex -86.2361 56.1958 2
      vertex -85.4181 56.0219 -4
      vertex -86.2361 56.1958 -4
    endloop
  endfacet
  facet normal 0 -1 0
    outer loop
      vertex 84.5819 63.9781 -4
      vertex 85.4181 63.9781 2
      vertex 84.5819 63.9781 2
    endloop
  endfacet
  facet normal 0 -1 -0
    outer loop
      vertex 85.4181 63.9781 2
      vertex 84.5819 63.9781 -4
      vertex 85.4181 63.9781 -4
    endloop
  endfacet
  facet normal -0.994522 0.104523 0
    outer loop
      vertex 88.9126 59.1684 -4
      vertex 89 60 2
      vertex 89 60 -4
    endloop
  endfacet
  facet normal -0.994522 0.104523 0
    outer loop
      vertex 89 60 2
      vertex 88.9126 59.1684 -4
      vertex 88.9126 59.1684 2
    endloop
  endfacet
  facet normal -0.95106 -0.309008 0
    outer loop
      vertex 88.9126 60.8316 -4
      vertex 88.6542 61.6269 2
      vertex 88.6542 61.6269 -4
    endloop
  endfacet
  facet normal -0.95106 -0.309008 0
    outer loop
      vertex 88.6542 61.6269 2
      vertex 88.9126 60.8316 -4
      vertex 88.9126 60.8316 2
    endloop
  endfacet
  facet normal -0.994522 -0.104523 0
    outer loop
      vertex 89 60 -4
      vertex 88.9126 60.8316 2
      vertex 88.9126 60.8316 -4
    endloop
  endfacet
  facet normal -0.994522 -0.104523 0
    outer loop
      vertex 88.9126 60.8316 2
      vertex 89 60 -4
      vertex 89 60 2
    endloop
  endfacet
  facet normal -0.866034 -0.499985 0
    outer loop
      vertex 88.6542 61.6269 -4
      vertex 88.2361 62.3511 2
      vertex 88.2361 62.3511 -4
    endloop
  endfacet
  facet normal -0.866034 -0.499985 0
    outer loop
      vertex 88.2361 62.3511 2
      vertex 88.6542 61.6269 -4
      vertex 88.6542 61.6269 2
    endloop
  endfacet
  facet normal -0.406726 0.91355 0
    outer loop
      vertex 87 56.5359 -4
      vertex 86.2361 56.1958 2
      vertex 87 56.5359 2
    endloop
  endfacet
  facet normal -0.406726 0.91355 0
    outer loop
      vertex 86.2361 56.1958 2
      vertex 87 56.5359 -4
      vertex 86.2361 56.1958 -4
    endloop
  endfacet
  facet normal 0.743145 -0.66913 0
    outer loop
      vertex 81.7639 62.3511 2
      vertex 82.3235 62.9726 -4
      vertex 82.3235 62.9726 2
    endloop
  endfacet
  facet normal 0.743145 -0.66913 0
    outer loop
      vertex 82.3235 62.9726 -4
      vertex 81.7639 62.3511 2
      vertex 81.7639 62.3511 -4
    endloop
  endfacet
  facet normal 0 0 -1
    outer loop
      vertex 88.9126 59.1684 2
      vertex 88.9126 60.8316 2
      vertex 89 60 2
    endloop
  endfacet
  facet normal 0 0 -1
    outer loop
      vertex 88.6542 58.3731 2
      vertex 88.9126 60.8316 2
      vertex 88.9126 59.1684 2
    endloop
  endfacet
  facet normal 0 0 -1
    outer loop
      vertex 88.6542 58.3731 2
      vertex 88.6542 61.6269 2
      vertex 88.9126 60.8316 2
    endloop
  endfacet
  facet normal 0 0 -1
    outer loop
      vertex 88.2361 57.6489 2
      vertex 88.6542 61.6269 2
      vertex 88.6542 58.3731 2
    endloop
  endfacet
  facet normal 0 0 -1
    outer loop
      vertex 88.2361 57.6489 2
      vertex 88.2361 62.3511 2
      vertex 88.6542 61.6269 2
    endloop
  endfacet
  facet normal 0 0 -1
    outer loop
      vertex 87.6765 57.0274 2
      vertex 88.2361 62.3511 2
      vertex 88.2361 57.6489 2
    endloop
  endfacet
  facet normal 0 0 -1
    outer loop
      vertex 87.6765 57.0274 2
      vertex 87.6765 62.9726 2
      vertex 88.2361 62.3511 2
    endloop
  endfacet
  facet normal 0 0 -1
    outer loop
      vertex 87 56.5359 2
      vertex 87.6765 62.9726 2
      vertex 87.6765 57.0274 2
    endloop
  endfacet
  facet normal 0 0 -1
    outer loop
      vertex 87 56.5359 2
      vertex 87 63.4641 2
      vertex 87.6765 62.9726 2
    endloop
  endfacet
  facet normal 0 0 -1
    outer loop
      vertex 86.2361 56.1958 2
      vertex 87 63.4641 2
      vertex 87 56.5359 2
    endloop
  endfacet
  facet normal 0 0 -1
    outer loop
      vertex 86.2361 56.1958 2
      vertex 86.2361 63.8042 2
      vertex 87 63.4641 2
    endloop
  endfacet
  facet normal 0 0 -1
    outer loop
      vertex 85.4181 56.0219 2
      vertex 86.2361 63.8042 2
      vertex 86.2361 56.1958 2
    endloop
  endfacet
  facet normal 0 0 -1
    outer loop
      vertex 85.4181 56.0219 2
      vertex 85.4181 63.9781 2
      vertex 86.2361 63.8042 2
    endloop
  endfacet
  facet normal 0 0 -1
    outer loop
      vertex 84.5819 56.0219 2
      vertex 85.4181 63.9781 2
      vertex 85.4181 56.0219 2
    endloop
  endfacet
  facet normal 0 0 -1
    outer loop
      vertex 84.5819 56.0219 2
      vertex 84.5819 63.9781 2
      vertex 85.4181 63.9781 2
    endloop
  endfacet
  facet normal 0 0 -1
    outer loop
      vertex 83.7639 56.1958 2
      vertex 84.5819 63.9781 2
      vertex 84.5819 56.0219 2
    endloop
  endfacet
  facet normal 0 0 -1
    outer loop
      vertex 83.7639 56.1958 2
      vertex 83.7639 63.8042 2
      vertex 84.5819 63.9781 2
    endloop
  endfacet
  facet normal 0 0 -1
    outer loop
      vertex 83 56.5359 2
      vertex 83.7639 63.8042 2
      vertex 83.7639 56.1958 2
    endloop
  endfacet
  facet normal 0 0 -1
    outer loop
      vertex 83 56.5359 2
      vertex 83 63.4641 2
      vertex 83.7639 63.8042 2
    endloop
  endfacet
  facet normal 0 0 -1
    outer loop
      vertex 82.3235 57.0274 2
      vertex 83 63.4641 2
      vertex 83 56.5359 2
    endloop
  endfacet
  facet normal 0 0 -1
    outer loop
      vertex 82.3235 57.0274 2
      vertex 82.3235 62.9726 2
      vertex 83 63.4641 2
    endloop
  endfacet
  facet normal 0 0 -1
    outer loop
      vertex 81.7639 57.6489 2
      vertex 82.3235 62.9726 2
      vertex 82.3235 57.0274 2
    endloop
  endfacet
  facet normal 0 0 -1
    outer loop
      vertex 81.7639 57.6489 2
      vertex 81.7639 62.3511 2
      vertex 82.3235 62.9726 2
    endloop
  endfacet
  facet normal 0 0 -1
    outer loop
      vertex 81.3458 58.3731 2
      vertex 81.7639 62.3511 2
      vertex 81.7639 57.6489 2
    endloop
  endfacet
  facet normal 0 0 -1
    outer loop
      vertex 81.3458 58.3731 2
      vertex 81.3458 61.6269 2
      vertex 81.7639 62.3511 2
    endloop
  endfacet
  facet normal 0 0 -1
    outer loop
      vertex 81.0874 59.1684 2
      vertex 81.3458 61.6269 2
      vertex 81.3458 58.3731 2
    endloop
  endfacet
  facet normal 0 0 -1
    outer loop
      vertex 81.0874 59.1684 2
      vertex 81.0874 60.8316 2
      vertex 81.3458 61.6269 2
    endloop
  endfacet
  facet normal 0 -0 -1
    outer loop
      vertex 81.0874 60.8316 2
      vertex 81.0874 59.1684 2
      vertex 81 60 2
    endloop
  endfacet
  facet normal -0.743145 -0.66913 0
    outer loop
      vertex 88.2361 62.3511 -4
      vertex 87.6765 62.9726 2
      vertex 87.6765 62.9726 -4
    endloop
  endfacet
  facet normal -0.743145 -0.66913 0
    outer loop
      vertex 87.6765 62.9726 2
      vertex 88.2361 62.3511 -4
      vertex 88.2361 62.3511 2
    endloop
  endfacet
  facet normal 0 1 -0
    outer loop
      vertex 85.4181 56.0219 -4
      vertex 84.5819 56.0219 2
      vertex 85.4181 56.0219 2
    endloop
  endfacet
  facet normal 0 1 0
    outer loop
      vertex 84.5819 56.0219 2
      vertex 85.4181 56.0219 -4
      vertex 84.5819 56.0219 -4
    endloop
  endfacet
  facet normal 0.406726 -0.91355 0
    outer loop
      vertex 83 63.4641 -4
      vertex 83.7639 63.8042 2
      vertex 83 63.4641 2
    endloop
  endfacet
  facet normal 0.406726 -0.91355 0
    outer loop
      vertex 83.7639 63.8042 2
      vertex 83 63.4641 -4
      vertex 83.7639 63.8042 -4
    endloop
  endfacet
  facet normal -0.587781 -0.80902 0
    outer loop
      vertex 87 63.4641 -4
      vertex 87.6765 62.9726 2
      vertex 87 63.4641 2
    endloop
  endfacet
  facet normal -0.587781 -0.80902 -0
    outer loop
      vertex 87.6765 62.9726 2
      vertex 87 63.4641 -4
      vertex 87.6765 62.9726 -4
    endloop
  endfacet
  facet normal 0.994522 -0.104523 0
    outer loop
      vertex 81 60 2
      vertex 81.0874 60.8316 -4
      vertex 81.0874 60.8316 2
    endloop
  endfacet
  facet normal 0.994522 -0.104523 0
    outer loop
      vertex 81.0874 60.8316 -4
      vertex 81 60 2
      vertex 81 60 -4
    endloop
  endfacet
  facet normal 0.743145 0.66913 0
    outer loop
      vertex 82.3235 57.0274 2
      vertex 81.7639 57.6489 -4
      vertex 81.7639 57.6489 2
    endloop
  endfacet
  facet normal 0.743145 0.66913 0
    outer loop
      vertex 81.7639 57.6489 -4
      vertex 82.3235 57.0274 2
      vertex 82.3235 57.0274 -4
    endloop
  endfacet
  facet normal -0.743145 0.66913 0
    outer loop
      vertex 87.6765 57.0274 -4
      vertex 88.2361 57.6489 2
      vertex 88.2361 57.6489 -4
    endloop
  endfacet
  facet normal -0.743145 0.66913 0
    outer loop
      vertex 88.2361 57.6489 2
      vertex 87.6765 57.0274 -4
      vertex 87.6765 57.0274 2
    endloop
  endfacet
  facet normal 0.587781 0.80902 -0
    outer loop
      vertex 83 56.5359 -4
      vertex 82.3235 57.0274 2
      vertex 83 56.5359 2
    endloop
  endfacet
  facet normal 0.587781 0.80902 0
    outer loop
      vertex 82.3235 57.0274 2
      vertex 83 56.5359 -4
      vertex 82.3235 57.0274 -4
    endloop
  endfacet
  facet normal -0.587781 0.80902 0
    outer loop
      vertex 87.6765 57.0274 -4
      vertex 87 56.5359 2
      vertex 87.6765 57.0274 2
    endloop
  endfacet
  facet normal -0.587781 0.80902 0
    outer loop
      vertex 87 56.5359 2
      vertex 87.6765 57.0274 -4
      vertex 87 56.5359 -4
    endloop
  endfacet
  facet normal -0.207945 0.978141 0
    outer loop
      vertex 86.2361 56.1958 -4
      vertex 85.4181 56.0219 2
      vertex 86.2361 56.1958 2
    endloop
  endfacet
  facet normal -0.207945 0.978141 0
    outer loop
      vertex 85.4181 56.0219 2
      vertex 86.2361 56.1958 -4
      vertex 85.4181 56.0219 -4
    endloop
  endfacet
  facet normal -0.866034 0.499985 0
    outer loop
      vertex 88.2361 57.6489 -4
      vertex 88.6542 58.3731 2
      vertex 88.6542 58.3731 -4
    endloop
  endfacet
  facet normal -0.866034 0.499985 0
    outer loop
      vertex 88.6542 58.3731 2
      vertex 88.2361 57.6489 -4
      vertex 88.2361 57.6489 2
    endloop
  endfacet
  facet normal 0.207945 0.978141 -0
    outer loop
      vertex 84.5819 56.0219 -4
      vertex 83.7639 56.1958 2
      vertex 84.5819 56.0219 2
    endloop
  endfacet
  facet normal 0.207945 0.978141 0
    outer loop
      vertex 83.7639 56.1958 2
      vertex 84.5819 56.0219 -4
      vertex 83.7639 56.1958 -4
    endloop
  endfacet
  facet normal 0.866034 -0.499985 0
    outer loop
      vertex 81.3458 61.6269 2
      vertex 81.7639 62.3511 -4
      vertex 81.7639 62.3511 2
    endloop
  endfacet
  facet normal 0.866034 -0.499985 0
    outer loop
      vertex 81.7639 62.3511 -4
      vertex 81.3458 61.6269 2
      vertex 81.3458 61.6269 -4
    endloop
  endfacet
  facet normal 0.587781 -0.80902 0
    outer loop
      vertex 82.3235 62.9726 -4
      vertex 83 63.4641 2
      vertex 82.3235 62.9726 2
    endloop
  endfacet
  facet normal 0.587781 -0.80902 0
    outer loop
      vertex 83 63.4641 2
      vertex 82.3235 62.9726 -4
      vertex 83 63.4641 -4
    endloop
  endfacet
  facet normal -0.406726 -0.91355 0
    outer loop
      vertex 86.2361 63.8042 -4
      vertex 87 63.4641 2
      vertex 86.2361 63.8042 2
    endloop
  endfacet
  facet normal -0.406726 -0.91355 -0
    outer loop
      vertex 87 63.4641 2
      vertex 86.2361 63.8042 -4
      vertex 87 63.4641 -4
    endloop
  endfacet
  facet normal -0.95106 0.309008 0
    outer loop
      vertex 88.6542 58.3731 -4
      vertex 88.9126 59.1684 2
      vertex 88.9126 59.1684 -4
    endloop
  endfacet
  facet normal -0.95106 0.309008 0
    outer loop
      vertex 88.9126 59.1684 2
      vertex 88.6542 58.3731 -4
      vertex 88.6542 58.3731 2
    endloop
  endfacet
  facet normal -0.207945 -0.978141 0
    outer loop
      vertex 85.4181 63.9781 -4
      vertex 86.2361 63.8042 2
      vertex 85.4181 63.9781 2
    endloop
  endfacet
  facet normal -0.207945 -0.978141 -0
    outer loop
      vertex 86.2361 63.8042 2
      vertex 85.4181 63.9781 -4
      vertex 86.2361 63.8042 -4
    endloop
  endfacet
  facet normal 0.406726 0.91355 -0
    outer loop
      vertex 83.7639 56.1958 -4
      vertex 83 56.5359 2
      vertex 83.7639 56.1958 2
    endloop
  endfacet
  facet normal 0.406726 0.91355 0
    outer loop
      vertex 83 56.5359 2
      vertex 83.7639 56.1958 -4
      vertex 83 56.5359 -4
    endloop
  endfacet
  facet normal 0.95106 -0.309008 0
    outer loop
      vertex 81.0874 60.8316 2
      vertex 81.3458 61.6269 -4
      vertex 81.3458 61.6269 2
    endloop
  endfacet
  facet normal 0.95106 -0.309008 0
    outer loop
      vertex 81.3458 61.6269 -4
      vertex 81.0874 60.8316 2
      vertex 81.0874 60.8316 -4
    endloop
  endfacet
  facet normal 0.207945 -0.978141 0
    outer loop
      vertex 83.7639 63.8042 -4
      vertex 84.5819 63.9781 2
      vertex 83.7639 63.8042 2
    endloop
  endfacet
  facet normal 0.207945 -0.978141 0
    outer loop
      vertex 84.5819 63.9781 2
      vertex 83.7639 63.8042 -4
      vertex 84.5819 63.9781 -4
    endloop
  endfacet
  facet normal 0.95106 0.309008 0
    outer loop
      vertex 81.3458 58.3731 2
      vertex 81.0874 59.1684 -4
      vertex 81.0874 59.1684 2
    endloop
  endfacet
  facet normal 0.95106 0.309008 0
    outer loop
      vertex 81.0874 59.1684 -4
      vertex 81.3458 58.3731 2
      vertex 81.3458 58.3731 -4
    endloop
  endfacet
  facet normal 0.866034 0.499985 0
    outer loop
      vertex 81.7639 57.6489 2
      vertex 81.3458 58.3731 -4
      vertex 81.3458 58.3731 2
    endloop
  endfacet
  facet normal 0.866034 0.499985 0
    outer loop
      vertex 81.3458 58.3731 -4
      vertex 81.7639 57.6489 2
      vertex 81.7639 57.6489 -4
    endloop
  endfacet
  facet normal 0.994522 0.104523 0
    outer loop
      vertex 81.0874 59.1684 2
      vertex 81 60 -4
      vertex 81 60 2
    endloop
  endfacet
  facet normal 0.994522 0.104523 0
    outer loop
      vertex 81 60 -4
      vertex 81.0874 59.1684 2
      vertex 81.0874 59.1684 -4
    endloop
  endfacet
endsolid OpenSCAD_Model
